<svg width="295" height="28" viewBox="0 0 295 28" fill="none" xmlns="http://www.w3.org/2000/svg">
<path d="M36.9088 17.088H28.9288L28.3828 20.28H38.1688L36.9928 27H19.2268L23.8468 0.75H41.4028L39.2188 7.47H30.6088L30.0208 10.998H38.0008L36.9088 17.088ZM17.9668 26.874L0.158829 24.984H18.3028L17.9668 26.874ZM19.3948 18.768L1.58683 16.878H19.7308L19.3948 18.768ZM20.1088 14.736L2.30083 12.846H20.4448L20.1088 14.736ZM20.8228 10.704L3.01483 8.814H21.1588L20.8228 10.704ZM21.5368 6.672L3.72883 4.782H21.8308L21.5368 6.672ZM18.6808 22.8L0.872828 20.91H19.0168L18.6808 22.8ZM22.2088 2.64L4.44283 0.75H22.5448L22.2088 2.64ZM57.5974 27H49.1974L60.2434 0.75H72.5914L74.4394 27H65.9974L65.8294 22.842H59.2354L57.5974 27ZM65.1994 16.164V8.814H64.7794L61.8394 16.164H65.1994ZM47.8534 26.832L30.6334 24.984H48.6514L47.8534 26.832ZM49.5754 22.758L32.3554 20.91H50.3734L49.5754 22.758ZM51.2974 18.726L34.0774 16.878H52.0534L51.2974 18.726ZM52.9774 14.694L35.7994 12.846H53.7754L52.9774 14.694ZM54.6994 10.662L37.5214 8.814H55.4554L54.6994 10.662ZM58.1014 2.556L40.9654 0.75H58.8574L58.1014 2.556ZM56.3794 6.588L39.2434 4.782H57.1354L56.3794 6.588ZM58.1014 2.556L58.8574 0.75H40.9654L58.1014 2.556ZM87.694 10.704L69.886 8.814H87.988C87.848 9.374 87.75 10.004 87.694 10.704ZM89.122 4.782L88.492 6.63L71.062 4.782H89.122ZM87.694 12.846C87.75 13.602 87.862 14.232 88.03 14.736L70.264 12.846H87.694ZM93.574 18.768L71.356 16.878H89.458C90.382 17.774 91.754 18.404 93.574 18.768ZM92.272 0.75C91.628 1.17 91.012 1.744 90.424 2.472L74.212 0.75H92.272ZM70.642 20.91H86.35L85.72 22.758L70.642 20.91ZM69.928 24.984H85.006L84.376 26.832L69.928 24.984ZM88.156 19.608C90.508 20.252 92.65 20.574 94.582 20.574C96.542 20.574 98.138 20.49 99.37 20.322L99.706 18.222L96.22 17.886C93.56 17.634 91.67 17.032 90.55 16.08C89.458 15.128 88.912 13.784 88.912 12.048C88.912 11.292 88.996 10.452 89.164 9.528C89.808 5.944 90.984 3.48 92.692 2.136C94.4 0.791999 97.018 0.119998 100.546 0.119998C104.102 0.119998 107.238 0.469999 109.954 1.17L107.77 7.89C105.334 7.47 103.374 7.26 101.89 7.26C100.434 7.26 99.174 7.33 98.11 7.47L97.774 9.528L100.588 9.822C103.444 10.13 105.474 10.816 106.678 11.88C107.882 12.916 108.484 14.316 108.484 16.08C108.484 17.872 108.106 19.72 107.35 21.624C106.93 22.604 106.482 23.43 106.006 24.102C105.558 24.746 104.97 25.306 104.242 25.782C103.542 26.23 102.898 26.58 102.31 26.832C101.722 27.056 100.966 27.224 100.042 27.336C98.754 27.532 97.158 27.63 95.254 27.63C91.782 27.63 88.632 27.266 85.804 26.538L88.156 19.608ZM120.154 26.874L102.388 24.984H120.49L120.154 26.874ZM120.868 22.8L103.102 20.91H121.162L120.868 22.8ZM121.162 18.768L103.354 16.878H120.784L121.162 18.768ZM120.364 14.736L102.556 12.846H119.986L120.364 14.736ZM118.39 4.782L118.768 6.672L101.002 4.782H118.39ZM119.188 8.814L119.566 10.704L101.8 8.814H119.188ZM118.012 2.64L100.246 0.75H117.634L118.012 2.64ZM127.714 0.75L128.26 9.99H128.554L132.418 0.75H141.238L130.654 19.86L129.436 27H121.456L122.674 19.86L118.894 0.75H127.714ZM170.616 0.75C174.228 0.75 176.79 1.394 178.302 2.682C179.842 3.942 180.612 6 180.612 8.856C180.612 10.312 180.444 11.992 180.108 13.896C179.268 18.6 177.826 21.96 175.782 23.976C173.766 25.992 170.504 27 165.996 27H154.824L159.444 0.75H170.616ZM169.524 7.47H166.206L163.98 20.28H167.298C168.39 20.28 169.202 20.154 169.734 19.902C170.266 19.622 170.616 19.006 170.784 18.054L172.254 9.696C172.282 9.528 172.296 9.304 172.296 9.024C172.296 8.38 172.072 7.96 171.624 7.764C171.176 7.568 170.476 7.47 169.524 7.47ZM153.564 26.874L135.756 24.984H153.9L153.564 26.874ZM154.992 18.768L137.184 16.878H155.328L154.992 18.768ZM155.706 14.736L137.898 12.846H156.042L155.706 14.736ZM156.42 10.704L138.612 8.814H156.756L156.42 10.704ZM157.134 6.672L139.326 4.782H157.428L157.134 6.672ZM154.278 22.8L136.47 20.91H154.614L154.278 22.8ZM157.806 2.64L140.04 0.75H158.142L157.806 2.64ZM207.359 0.75C212.147 0.75 214.541 2.892 214.541 7.176C214.541 8.94 214.275 10.62 213.743 12.216C212.763 15.24 211.223 17.256 209.123 18.264L211.895 27H203.117L201.185 19.188H199.463L198.119 27H190.139L194.759 0.75H207.359ZM202.445 12.72C203.397 12.72 204.111 12.622 204.587 12.426C205.091 12.202 205.427 11.6 205.595 10.62C205.791 9.612 205.889 8.996 205.889 8.772C205.889 8.212 205.665 7.862 205.217 7.722C204.797 7.554 204.097 7.47 203.117 7.47H201.521L200.597 12.72H202.445ZM188.879 26.874L171.071 24.984H189.215L188.879 26.874ZM190.307 18.768L172.499 16.878H190.643L190.307 18.768ZM191.693 10.704L173.927 8.814H192.029L191.693 10.704ZM192.407 6.672L174.641 4.782H192.743L192.407 6.672ZM189.593 22.8L171.785 20.91H189.929L189.593 22.8ZM193.121 2.64L175.355 0.75H193.457L193.121 2.64ZM190.979 14.736L173.213 12.846H191.315L190.979 14.736ZM231.422 27H223.022L234.068 0.75H246.416L248.264 27H239.822L239.654 22.842H233.06L231.422 27ZM239.024 16.164V8.814H238.604L235.664 16.164H239.024ZM221.678 26.832L204.458 24.984H222.476L221.678 26.832ZM223.4 22.758L206.18 20.91H224.198L223.4 22.758ZM225.122 18.726L207.902 16.878H225.878L225.122 18.726ZM226.802 14.694L209.624 12.846H227.6L226.802 14.694ZM228.524 10.662L211.346 8.814H229.28L228.524 10.662ZM231.926 2.556L214.79 0.75H232.682L231.926 2.556ZM230.204 6.588L213.068 4.782H230.96L230.204 6.588ZM231.926 2.556L232.682 0.75H214.79L231.926 2.556ZM260.048 0.75V2.64L243.542 0.75H260.048ZM260.048 4.782V6.672L243.542 4.782H260.048ZM260.048 8.814V10.704L243.542 8.814H260.048ZM260.048 12.846V14.736L243.542 12.846H260.048ZM260.048 16.878V18.768L243.542 16.878H260.048ZM260.048 20.91V22.8L243.542 20.91H260.048ZM260.048 24.984V26.874L243.542 24.984H260.048ZM274.958 27V17.34H274.496L271.01 27H261.308V0.75H269.666L268.91 15.408H269.162L274.622 0.75H280.964V15.408H281.216L285.71 0.75H294.068L285.542 27H274.958Z" fill="#CC49D3"/>
</svg>
