<svg width="267" height="37" viewBox="0 0 267 37" fill="none" xmlns="http://www.w3.org/2000/svg">
<path d="M32.976 1.256C33.232 3.176 33.552 5.624 33.936 8.6C34.352 11.544 35.056 16.024 36.048 22.04C37.04 28.056 37.856 32.216 38.496 34.52L27.216 35C27.216 34.296 27.168 33.432 27.072 32.408C27.008 31.384 26.912 30.392 26.784 29.432C26.688 28.44 26.592 27.512 26.496 26.648C26.4 25.784 26.32 25.096 26.256 24.584L26.16 23.816L24.528 35C23.376 34.84 21.952 34.76 20.256 34.76C18.592 34.76 17.2 34.808 16.08 34.904L14.4 35L13.248 25.352L11.952 35C11.056 34.84 10.032 34.728 8.88 34.664C7.76 34.6 6.704 34.584 5.712 34.616C4.72 34.648 3.792 34.696 2.928 34.76C2.096 34.824 1.44 34.888 0.96 34.952L0.192 35C2.688 20.696 4.448 9.464 5.472 1.304C8.704 1.72 12.352 1.72 16.416 1.304L19.44 16.328L21.696 1.304C25.376 1.72 29.136 1.704 32.976 1.256ZM50.097 24.968C52.433 25.032 54.913 24.952 57.537 24.728C60.193 24.504 62.241 24.28 63.681 24.056L65.889 23.72C65.953 25.192 66.033 26.904 66.129 28.856C66.257 30.776 66.369 32.328 66.465 33.512C66.561 34.696 66.609 35.288 66.609 35.288C63.793 35.256 61.089 35.24 58.497 35.24C55.905 35.272 53.489 35.32 51.249 35.384C49.009 35.48 47.057 35.56 45.393 35.624C43.761 35.72 42.481 35.8 41.553 35.864L40.113 35.96C40.305 32.472 40.401 27.928 40.401 22.328C40.401 16.696 40.353 11.928 40.257 8.024L40.113 2.168C42.705 2.424 46.209 2.552 50.625 2.552C55.041 2.552 58.817 2.488 61.953 2.36L66.609 2.168C66.481 3 66.353 4.312 66.225 6.104C66.097 7.896 66.017 9.48 65.985 10.856L65.937 12.92L50.289 11.912C50.225 13.192 50.193 13.976 50.193 14.264C50.865 14.328 52.433 14.344 54.897 14.312C57.361 14.248 59.281 14.12 60.657 13.928C60.657 14.312 60.641 14.808 60.609 15.416C60.577 15.992 60.545 17.128 60.513 18.824C60.513 20.52 60.545 21.864 60.609 22.856C60.129 22.792 59.473 22.728 58.641 22.664C57.841 22.568 56.497 22.472 54.609 22.376C52.721 22.28 51.201 22.264 50.049 22.328L50.097 24.968ZM79.3549 2.408C80.7309 2.152 82.0589 2.024 83.3389 2.024C84.6509 2.024 85.8029 2.12 86.7949 2.312C87.7869 2.504 88.7149 2.744 89.5789 3.032C90.4749 3.288 91.2269 3.592 91.8349 3.944C92.4429 4.264 92.9549 4.568 93.3709 4.856C93.8189 5.144 94.1549 5.384 94.3789 5.576L94.6669 5.864C94.1869 6.6 93.6269 7.688 92.9869 9.128C92.3469 10.568 91.8349 11.832 91.4509 12.92L90.8269 14.552C90.6989 14.488 90.5069 14.408 90.2509 14.312C89.9949 14.184 89.4829 13.992 88.7149 13.736C87.9789 13.48 87.2749 13.304 86.6029 13.208C85.9309 13.08 85.1789 13.064 84.3469 13.16C83.5469 13.224 82.8429 13.448 82.2349 13.832C81.6589 14.216 81.1629 14.856 80.7469 15.752C80.3629 16.648 80.1709 17.768 80.1709 19.112C80.1709 20.232 80.3149 21.192 80.6029 21.992C80.8909 22.76 81.2589 23.336 81.7069 23.72C82.1549 24.104 82.6829 24.376 83.2909 24.536C83.9309 24.696 84.5389 24.76 85.1149 24.728C85.7229 24.664 86.3629 24.536 87.0349 24.344C87.0669 23.64 87.0509 22.92 86.9869 22.184C86.8269 22.152 86.6189 22.136 86.3629 22.136C86.1069 22.104 85.6429 22.072 84.9709 22.04C84.3309 21.976 83.9309 21.992 83.7709 22.088V16.136L94.6669 16.568C94.3789 21.816 94.3789 26.872 94.6669 31.736C92.9069 33.304 91.1469 34.424 89.3869 35.096C87.6589 35.8 85.7869 36.152 83.7709 36.152C82.8749 36.152 81.9469 36.072 80.9869 35.912C80.0269 35.784 78.9069 35.496 77.6269 35.048C76.3789 34.632 75.2269 34.088 74.1709 33.416C73.1469 32.744 72.1549 31.816 71.1949 30.632C70.2669 29.416 69.5789 28.024 69.1309 26.456C68.6189 24.76 68.2989 22.936 68.1709 20.984C68.0749 19 68.2029 17 68.5549 14.984C68.9389 12.936 69.5469 11.048 70.3789 9.32C71.2109 7.592 72.3949 6.104 73.9309 4.856C75.4989 3.576 77.3069 2.76 79.3549 2.408ZM111.077 12.92C110.405 16.088 109.925 18.968 109.637 21.56C110.949 21.432 112.069 21.432 112.997 21.56C112.133 17.368 111.493 14.488 111.077 12.92ZM103.829 2.168C104.501 2.264 105.397 2.36 106.517 2.456C107.669 2.552 109.621 2.616 112.373 2.648C115.125 2.648 117.445 2.488 119.333 2.168C119.397 2.616 119.477 3.24 119.573 4.04C119.701 4.808 119.973 6.408 120.389 8.84C120.805 11.24 121.269 13.656 121.781 16.088C122.293 18.52 122.981 21.432 123.845 24.824C124.741 28.184 125.685 31.384 126.677 34.424C126.101 34.424 125.333 34.44 124.373 34.472C123.445 34.504 121.877 34.648 119.669 34.904C117.461 35.16 115.653 35.512 114.245 35.96C113.957 32.344 113.637 29.544 113.285 27.56L108.869 27.368C108.197 30.664 107.749 33.528 107.525 35.96C107.333 35.896 107.077 35.832 106.757 35.768C106.437 35.736 105.749 35.624 104.693 35.432C103.669 35.272 102.709 35.16 101.812 35.096C100.949 35.032 99.8765 34.984 98.5965 34.952C97.3165 34.888 96.2765 34.952 95.4765 35.144C95.6685 34.664 95.9085 33.992 96.1965 33.128C96.5165 32.264 97.0765 30.536 97.8765 27.944C98.7085 25.32 99.4605 22.76 100.133 20.264C100.837 17.736 101.541 14.792 102.245 11.432C102.981 8.072 103.509 4.984 103.829 2.168ZM153.35 12.344C153.318 17.112 153.43 21.24 153.686 24.728C153.846 24.728 154.054 24.728 154.31 24.728C154.566 24.696 155.03 24.552 155.702 24.296C156.374 24.04 156.966 23.704 157.478 23.288C157.99 22.84 158.422 22.152 158.774 21.224C159.158 20.296 159.318 19.192 159.254 17.912C159.158 16.664 158.886 15.624 158.438 14.792C158.022 13.928 157.526 13.352 156.95 13.064C156.406 12.744 155.862 12.52 155.318 12.392C154.774 12.264 154.31 12.216 153.926 12.248L153.35 12.344ZM143.894 35.96C143.99 33.784 144.054 31.176 144.086 28.136C144.15 25.064 144.166 22.12 144.134 19.304C144.134 16.488 144.102 13.832 144.038 11.336C144.006 8.808 143.974 6.792 143.942 5.288L143.894 2.984C146.582 2.184 149.254 1.784 151.91 1.784C154.566 1.752 157.046 2.152 159.35 2.984C161.686 3.816 163.718 5.016 165.446 6.584C167.174 8.152 168.454 10.232 169.286 12.824C170.118 15.384 170.358 18.296 170.006 21.56C169.814 23.352 169.35 24.984 168.614 26.456C167.91 27.928 167.03 29.16 165.974 30.152C164.918 31.144 163.734 32.024 162.422 32.792C161.142 33.528 159.798 34.104 158.39 34.52C156.982 34.904 155.574 35.224 154.166 35.48C152.79 35.736 151.478 35.896 150.23 35.96C149.014 36.024 147.926 36.056 146.966 36.056C146.038 36.056 145.286 36.04 144.71 36.008L143.894 35.96ZM182.911 9.08C182.687 11.608 182.687 13.944 182.911 16.088C183.071 16.088 183.279 16.088 183.535 16.088C183.791 16.056 184.239 15.976 184.879 15.848C185.551 15.72 186.143 15.56 186.655 15.368C187.167 15.176 187.631 14.856 188.047 14.408C188.495 13.928 188.719 13.384 188.719 12.776C188.783 12.04 188.607 11.416 188.191 10.904C187.807 10.36 187.327 9.992 186.751 9.8C186.175 9.576 185.599 9.4 185.023 9.272C184.447 9.144 183.951 9.08 183.535 9.08H182.911ZM182.815 25.064L183.871 35.144C182.847 34.984 181.375 34.904 179.455 34.904C177.535 34.904 175.871 34.936 174.463 35L172.351 35.144C172.447 31.304 172.495 27.512 172.495 23.768C172.527 20.024 172.511 16.872 172.447 14.312C172.415 11.72 172.367 9.416 172.303 7.4C172.239 5.352 172.175 3.848 172.111 2.888L172.015 1.4C174.735 0.983997 177.263 0.743998 179.599 0.679998C181.967 0.615999 184.031 0.711999 185.791 0.967998C187.551 1.192 189.151 1.56 190.591 2.072C192.063 2.584 193.263 3.208 194.191 3.944C195.151 4.68 195.967 5.512 196.639 6.44C197.343 7.336 197.807 8.312 198.031 9.368C198.287 10.392 198.447 11.464 198.511 12.584C198.575 13.704 198.447 14.84 198.127 15.992C197.519 18.68 196.111 20.776 193.903 22.28L199.567 28.856C198.223 29.72 196.767 30.728 195.199 31.88C193.663 33 192.463 33.896 191.599 34.568L190.303 35.624C188.063 32.232 185.567 28.712 182.815 25.064ZM215.186 12.92C214.514 16.088 214.034 18.968 213.746 21.56C215.058 21.432 216.178 21.432 217.106 21.56C216.242 17.368 215.602 14.488 215.186 12.92ZM207.938 2.168C208.61 2.264 209.506 2.36 210.626 2.456C211.778 2.552 213.73 2.616 216.482 2.648C219.234 2.648 221.554 2.488 223.442 2.168C223.506 2.616 223.586 3.24 223.682 4.04C223.81 4.808 224.082 6.408 224.498 8.84C224.914 11.24 225.378 13.656 225.89 16.088C226.402 18.52 227.09 21.432 227.954 24.824C228.85 28.184 229.794 31.384 230.786 34.424C230.21 34.424 229.442 34.44 228.482 34.472C227.554 34.504 225.986 34.648 223.778 34.904C221.57 35.16 219.762 35.512 218.354 35.96C218.066 32.344 217.746 29.544 217.394 27.56L212.978 27.368C212.306 30.664 211.858 33.528 211.634 35.96C211.442 35.896 211.186 35.832 210.866 35.768C210.546 35.736 209.858 35.624 208.802 35.432C207.778 35.272 206.818 35.16 205.922 35.096C205.058 35.032 203.986 34.984 202.706 34.952C201.426 34.888 200.386 34.952 199.586 35.144C199.778 34.664 200.018 33.992 200.306 33.128C200.626 32.264 201.186 30.536 201.986 27.944C202.818 25.32 203.57 22.76 204.242 20.264C204.946 17.736 205.65 14.792 206.354 11.432C207.09 8.072 207.618 4.984 207.938 2.168ZM233.425 35C233.169 33.112 232.833 30.68 232.417 27.704C232.033 24.728 231.345 20.232 230.353 14.216C229.393 8.2 228.577 4.056 227.905 1.784L239.185 1.256C239.217 1.96 239.265 2.84 239.329 3.896C239.425 4.92 239.521 5.912 239.617 6.872C239.713 7.832 239.809 8.744 239.905 9.608C240.001 10.472 240.081 11.16 240.145 11.672L240.241 12.44L241.873 1.256C243.025 1.416 244.433 1.496 246.097 1.496C247.793 1.496 249.201 1.448 250.321 1.352L252.001 1.256L253.153 10.952L254.449 1.256C255.345 1.416 256.353 1.528 257.473 1.592C258.625 1.656 259.697 1.672 260.689 1.64C261.681 1.608 262.593 1.576 263.425 1.544C264.289 1.48 264.961 1.416 265.441 1.352L266.209 1.256C263.713 15.592 261.953 26.84 260.929 35C257.697 34.584 254.049 34.584 249.985 35L246.961 19.928L244.705 35C241.025 34.552 237.265 34.552 233.425 35Z" fill="white"/>
</svg>
