<svg width="234" height="33" viewBox="0 0 234 33" fill="none" xmlns="http://www.w3.org/2000/svg">
<path d="M29.3666 1.474C29.5906 3.154 29.8706 5.296 30.2066 7.9C30.5706 10.476 31.1866 14.396 32.0546 19.66C32.9226 24.924 33.6366 28.564 34.1966 30.58L24.3266 31C24.3266 30.384 24.2846 29.628 24.2006 28.732C24.1446 27.836 24.0606 26.968 23.9486 26.128C23.8646 25.26 23.7806 24.448 23.6966 23.692C23.6126 22.936 23.5426 22.334 23.4866 21.886L23.4026 21.214L21.9746 31C20.9666 30.86 19.7206 30.79 18.2366 30.79C16.7806 30.79 15.5626 30.832 14.5826 30.916L13.1126 31L12.1046 22.558L10.9706 31C10.1866 30.86 9.29059 30.762 8.28259 30.706C7.30259 30.65 6.37859 30.636 5.51059 30.664C4.64259 30.692 3.83059 30.734 3.07459 30.79C2.34659 30.846 1.77259 30.902 1.35259 30.958L0.680589 31C2.86459 18.484 4.40459 8.656 5.30059 1.516C8.12859 1.88 11.3206 1.88 14.8766 1.516L17.5226 14.662L19.4966 1.516C22.7166 1.88 26.0066 1.866 29.3666 1.474ZM44.3475 22.222C46.3915 22.278 48.5615 22.208 50.8575 22.012C53.1815 21.816 54.9735 21.62 56.2335 21.424L58.1655 21.13C58.2215 22.418 58.2915 23.916 58.3755 25.624C58.4875 27.304 58.5855 28.662 58.6695 29.698C58.7535 30.734 58.7955 31.252 58.7955 31.252C56.3315 31.224 53.9655 31.21 51.6975 31.21C49.4295 31.238 47.3155 31.28 45.3555 31.336C43.3955 31.42 41.6875 31.49 40.2315 31.546C38.8035 31.63 37.6835 31.7 36.8715 31.756L35.6115 31.84C35.7795 28.788 35.8635 24.812 35.8635 19.912C35.8635 14.984 35.8215 10.812 35.7375 7.396L35.6115 2.272C37.8795 2.496 40.9455 2.608 44.8095 2.608C48.6735 2.608 51.9775 2.552 54.7215 2.44L58.7955 2.272C58.6835 3 58.5715 4.148 58.4595 5.716C58.3475 7.284 58.2775 8.67 58.2495 9.874L58.2075 11.68L44.5155 10.798C44.4595 11.918 44.4315 12.604 44.4315 12.856C45.0195 12.912 46.3915 12.926 48.5475 12.898C50.7035 12.842 52.3835 12.73 53.5875 12.562C53.5875 12.898 53.5735 13.332 53.5455 13.864C53.5175 14.368 53.4895 15.362 53.4615 16.846C53.4615 18.33 53.4895 19.506 53.5455 20.374C53.1255 20.318 52.5515 20.262 51.8235 20.206C51.1235 20.122 49.9475 20.038 48.2955 19.954C46.6435 19.87 45.3135 19.856 44.3055 19.912L44.3475 22.222ZM69.9481 2.482C71.1521 2.258 72.3141 2.146 73.4341 2.146C74.5821 2.146 75.5901 2.23 76.4581 2.398C77.3261 2.566 78.1381 2.776 78.8941 3.028C79.6781 3.252 80.3361 3.518 80.8681 3.826C81.4001 4.106 81.8481 4.372 82.2121 4.624C82.6041 4.876 82.8981 5.086 83.0941 5.254L83.3461 5.506C82.9261 6.15 82.4361 7.102 81.8761 8.362C81.3161 9.622 80.8681 10.728 80.5321 11.68L79.9861 13.108C79.8741 13.052 79.7061 12.982 79.4821 12.898C79.2581 12.786 78.8101 12.618 78.1381 12.394C77.4941 12.17 76.8781 12.016 76.2901 11.932C75.7021 11.82 75.0441 11.806 74.3161 11.89C73.6161 11.946 73.0001 12.142 72.4681 12.478C71.9641 12.814 71.5301 13.374 71.1661 14.158C70.8301 14.942 70.6621 15.922 70.6621 17.098C70.6621 18.078 70.7881 18.918 71.0401 19.618C71.2921 20.29 71.6141 20.794 72.0061 21.13C72.3981 21.466 72.8601 21.704 73.3921 21.844C73.9521 21.984 74.4841 22.04 74.9881 22.012C75.5201 21.956 76.0801 21.844 76.6681 21.676C76.6961 21.06 76.6821 20.43 76.6261 19.786C76.4861 19.758 76.3041 19.744 76.0801 19.744C75.8561 19.716 75.4501 19.688 74.8621 19.66C74.3021 19.604 73.9521 19.618 73.8121 19.702V14.494L83.3461 14.872C83.0941 19.464 83.0941 23.888 83.3461 28.144C81.8061 29.516 80.2661 30.496 78.7261 31.084C77.2141 31.7 75.5761 32.008 73.8121 32.008C73.0281 32.008 72.2161 31.938 71.3761 31.798C70.5361 31.686 69.5561 31.434 68.4361 31.042C67.3441 30.678 66.3361 30.202 65.4121 29.614C64.5161 29.026 63.6481 28.214 62.8081 27.178C61.9961 26.114 61.3941 24.896 61.0021 23.524C60.5541 22.04 60.2741 20.444 60.1621 18.736C60.0781 17 60.1901 15.25 60.4981 13.486C60.8341 11.694 61.3661 10.042 62.0941 8.53C62.8221 7.018 63.8581 5.716 65.2021 4.624C66.5741 3.504 68.1561 2.79 69.9481 2.482ZM97.7045 11.68C97.1165 14.452 96.6965 16.972 96.4445 19.24C97.5925 19.128 98.5725 19.128 99.3845 19.24C98.6285 15.572 98.0685 13.052 97.7045 11.68ZM91.3625 2.272C91.9505 2.356 92.7345 2.44 93.7145 2.524C94.7225 2.608 96.4305 2.664 98.8385 2.692C101.247 2.692 103.277 2.552 104.929 2.272C104.985 2.664 105.055 3.21 105.139 3.91C105.251 4.582 105.489 5.982 105.853 8.11C106.217 10.21 106.623 12.324 107.071 14.452C107.519 16.58 108.121 19.128 108.877 22.096C109.661 25.036 110.487 27.836 111.355 30.496C110.851 30.496 110.179 30.51 109.339 30.538C108.527 30.566 107.155 30.692 105.223 30.916C103.291 31.14 101.709 31.448 100.477 31.84C100.225 28.676 99.9445 26.226 99.6365 24.49L95.7725 24.322C95.1845 27.206 94.7925 29.712 94.5965 31.84C94.4285 31.784 94.2045 31.728 93.9245 31.672C93.6445 31.644 93.0425 31.546 92.1185 31.378C91.2225 31.238 90.3825 31.14 89.5985 31.084C88.8425 31.028 87.9045 30.986 86.7845 30.958C85.6645 30.902 84.7545 30.958 84.0545 31.126C84.2225 30.706 84.4325 30.118 84.6845 29.362C84.9645 28.606 85.4545 27.094 86.1545 24.826C86.8825 22.53 87.5405 20.29 88.1285 18.106C88.7445 15.894 89.3605 13.318 89.9765 10.378C90.6205 7.438 91.0825 4.736 91.3625 2.272ZM134.694 11.176C134.666 15.348 134.764 18.96 134.988 22.012C135.128 22.012 135.31 22.012 135.534 22.012C135.758 21.984 136.164 21.858 136.752 21.634C137.34 21.41 137.858 21.116 138.306 20.752C138.754 20.36 139.132 19.758 139.44 18.946C139.776 18.134 139.916 17.168 139.86 16.048C139.776 14.956 139.538 14.046 139.146 13.318C138.782 12.562 138.348 12.058 137.844 11.806C137.368 11.526 136.892 11.33 136.416 11.218C135.94 11.106 135.534 11.064 135.198 11.092L134.694 11.176ZM126.42 31.84C126.504 29.936 126.56 27.654 126.588 24.994C126.644 22.306 126.658 19.73 126.63 17.266C126.63 14.802 126.602 12.478 126.546 10.294C126.518 8.082 126.49 6.318 126.462 5.002L126.42 2.986C128.772 2.286 131.11 1.936 133.434 1.936C135.758 1.908 137.928 2.258 139.944 2.986C141.988 3.714 143.766 4.764 145.278 6.136C146.79 7.508 147.91 9.328 148.638 11.596C149.366 13.836 149.576 16.384 149.268 19.24C149.1 20.808 148.694 22.236 148.05 23.524C147.434 24.812 146.664 25.89 145.74 26.758C144.816 27.626 143.78 28.396 142.632 29.068C141.512 29.712 140.336 30.216 139.104 30.58C137.872 30.916 136.64 31.196 135.408 31.42C134.204 31.644 133.056 31.784 131.964 31.84C130.9 31.896 129.948 31.924 129.108 31.924C128.296 31.924 127.638 31.91 127.134 31.882L126.42 31.84ZM160.559 8.32C160.363 10.532 160.363 12.576 160.559 14.452C160.699 14.452 160.881 14.452 161.105 14.452C161.329 14.424 161.721 14.354 162.281 14.242C162.869 14.13 163.387 13.99 163.835 13.822C164.283 13.654 164.689 13.374 165.053 12.982C165.445 12.562 165.641 12.086 165.641 11.554C165.697 10.91 165.543 10.364 165.179 9.916C164.843 9.44 164.423 9.118 163.919 8.95C163.415 8.754 162.911 8.6 162.407 8.488C161.903 8.376 161.469 8.32 161.105 8.32H160.559ZM160.475 22.306L161.399 31.126C160.503 30.986 159.215 30.916 157.535 30.916C155.855 30.916 154.399 30.944 153.167 31L151.319 31.126C151.403 27.766 151.445 24.448 151.445 21.172C151.473 17.896 151.459 15.138 151.403 12.898C151.375 10.63 151.333 8.614 151.277 6.85C151.221 5.058 151.165 3.742 151.109 2.902L151.025 1.6C153.405 1.236 155.617 1.026 157.661 0.969999C159.733 0.913999 161.539 0.997999 163.079 1.222C164.619 1.418 166.019 1.74 167.279 2.188C168.567 2.636 169.617 3.182 170.429 3.826C171.269 4.47 171.983 5.198 172.571 6.01C173.187 6.794 173.593 7.648 173.789 8.572C174.013 9.468 174.153 10.406 174.209 11.386C174.265 12.366 174.153 13.36 173.873 14.368C173.341 16.72 172.109 18.554 170.177 19.87L175.133 25.624C173.957 26.38 172.683 27.262 171.311 28.27C169.967 29.25 168.917 30.034 168.161 30.622L167.027 31.546C165.067 28.578 162.883 25.498 160.475 22.306ZM188.8 11.68C188.212 14.452 187.792 16.972 187.54 19.24C188.688 19.128 189.668 19.128 190.48 19.24C189.724 15.572 189.164 13.052 188.8 11.68ZM182.458 2.272C183.046 2.356 183.83 2.44 184.81 2.524C185.818 2.608 187.526 2.664 189.934 2.692C192.342 2.692 194.372 2.552 196.024 2.272C196.08 2.664 196.15 3.21 196.234 3.91C196.346 4.582 196.584 5.982 196.948 8.11C197.312 10.21 197.718 12.324 198.166 14.452C198.614 16.58 199.216 19.128 199.972 22.096C200.756 25.036 201.582 27.836 202.45 30.496C201.946 30.496 201.274 30.51 200.434 30.538C199.622 30.566 198.25 30.692 196.318 30.916C194.386 31.14 192.804 31.448 191.572 31.84C191.32 28.676 191.04 26.226 190.732 24.49L186.868 24.322C186.28 27.206 185.888 29.712 185.692 31.84C185.524 31.784 185.3 31.728 185.02 31.672C184.74 31.644 184.138 31.546 183.214 31.378C182.318 31.238 181.478 31.14 180.694 31.084C179.938 31.028 179 30.986 177.88 30.958C176.76 30.902 175.85 30.958 175.15 31.126C175.318 30.706 175.528 30.118 175.78 29.362C176.06 28.606 176.55 27.094 177.25 24.826C177.978 22.53 178.636 20.29 179.224 18.106C179.84 15.894 180.456 13.318 181.072 10.378C181.716 7.438 182.178 4.736 182.458 2.272ZM204.76 31C204.536 29.348 204.242 27.22 203.878 24.616C203.542 22.012 202.94 18.078 202.072 12.814C201.232 7.55 200.518 3.924 199.93 1.936L209.8 1.474C209.828 2.09 209.87 2.86 209.926 3.784C210.01 4.68 210.094 5.548 210.178 6.388C210.262 7.228 210.346 8.026 210.43 8.782C210.514 9.538 210.584 10.14 210.64 10.588L210.724 11.26L212.152 1.474C213.16 1.614 214.392 1.684 215.848 1.684C217.332 1.684 218.564 1.642 219.544 1.558L221.014 1.474L222.022 9.958L223.156 1.474C223.94 1.614 224.822 1.712 225.802 1.768C226.81 1.824 227.748 1.838 228.616 1.81C229.484 1.782 230.282 1.754 231.01 1.726C231.766 1.67 232.354 1.614 232.774 1.558L233.446 1.474C231.262 14.018 229.722 23.86 228.826 31C225.998 30.636 222.806 30.636 219.25 31L216.604 17.812L214.63 31C211.41 30.608 208.12 30.608 204.76 31Z" fill="#CC49D3"/>
</svg>
