<svg width="97" height="69" viewBox="0 0 97 69" fill="none" xmlns="http://www.w3.org/2000/svg">
<g id="Layer_2" clip-path="url(#clip0_24_220)">
<g id="Group">
<path id="Vector" d="M0 40.0993C0 40.0993 5.13936 32.6486 14.3489 28.1732C21.8213 24.5427 44.3225 16.4688 50.1577 13.349C60.8238 7.64637 67.8111 0 67.8111 0L97 17.9981C97 17.9981 91.054 25.3203 83.0524 31.1896C74.9491 37.1341 53.3783 40.1535 42.7192 48.7732C35.8178 54.3535 27.9091 68.999 27.9091 68.999L0 40.0993Z" fill="#BDE377"/>
<path id="Vector_2" d="M26.792 65.0494L3.56201 40.0532L3.89745 39.4892C4.0422 39.2454 7.58026 33.4524 19.2097 28.0116C22.8486 26.3087 28.1237 24.1583 33.7094 21.8815C41.076 18.8781 48.6932 15.7734 52.8452 13.5618C58.7483 10.4179 67.5205 2.62506 67.6084 2.54679L68.0866 2.12032L94.6749 18.253L94.046 19.0326C93.9871 19.1059 92.5664 20.8559 89.8141 23.3505C87.2853 25.6414 83.1033 29.0201 77.5377 32.0997C72.579 34.8432 67.3129 36.4146 61.7382 38.0773C53.9413 40.4034 45.8779 42.8087 38.7838 48.712C33.4538 53.1473 27.4349 63.8974 27.375 64.0058L26.794 65.0504L26.792 65.0494ZM5.75932 39.8575L26.4476 62.1183C28.1247 59.2484 33.0405 51.2187 37.6737 47.3644C45.0423 41.2342 53.2785 38.7768 61.2431 36.4006C66.7259 34.7649 71.9042 33.2206 76.6981 30.5674C85.0331 25.9555 90.2713 20.6332 92.0323 18.6905L68.2793 4.27776C66.3275 5.98364 59.0038 12.2583 53.6588 15.1051C49.4289 17.3579 41.7698 20.4806 34.3623 23.5001C28.7976 25.7689 23.5424 27.9113 19.9425 29.5951C14.1472 32.3064 10.4964 35.0981 8.45579 36.9625C7.05414 38.2429 6.19858 39.2725 5.75932 39.8565V39.8575Z" fill="#6BA638"/>
<path id="Vector_3" d="M38.8148 20.7215C35.133 22.5367 32.732 27.1035 37.8614 33.1825C42.9918 39.2614 52.7903 40.5047 57.0781 39.0096C61.3659 37.5144 62.6048 29.7647 58.4248 25.5692C54.2448 21.3737 47.1687 16.6033 38.8138 20.7205L38.8148 20.7215Z" fill="#6BA638"/>
<path id="Vector_4" d="M27.7464 39.8254C28.6409 40.9603 28.7177 42.3962 27.9181 43.0344C27.1174 43.6716 25.7437 43.2693 24.8492 42.1343C23.9547 40.9994 23.8779 39.5635 24.6775 38.9253C25.4782 38.2881 26.8519 38.6905 27.7464 39.8254Z" fill="#6BA638"/>
<path id="Vector_5" d="M73.8828 15.6008C74.9371 16.5872 75.2276 17.9961 74.5318 18.7477C73.8359 19.4993 72.4173 19.3076 71.3631 18.3212C70.3089 17.3348 70.0183 15.9259 70.7142 15.1743C71.41 14.4227 72.8286 14.6144 73.8828 15.6008Z" fill="#6BA638"/>
<path id="Vector_6" d="M53.3084 35.7543L55.4129 34.7609L54.3816 33.6972C57.3037 32.1328 57.3995 29.9162 55.7393 28.0698C53.5091 25.5903 49.7763 26.4874 48.3148 27.1095C46.8533 27.7317 45.5305 28.126 44.5481 27.5269C43.7375 27.0322 44.2596 25.5782 45.5075 24.8327C47.3464 23.7339 47.9913 24.5808 47.9913 24.5808L50.3594 23.6345C50.3594 23.6345 47.9724 21.3577 44.9015 22.8468L43.9112 22.0731L42.4057 22.8368L43.2823 23.6737C41.4673 24.8708 41.2377 27.4146 42.0673 28.5655C43.9831 31.2247 47.3544 30.1811 48.6572 29.4365C50.2146 28.5465 51.6592 28.3307 52.2911 28.8575C54.2848 30.5213 53.2465 31.5077 51.5394 32.3596C49.2383 33.5076 48.2489 32.0626 48.2489 32.0626L44.9265 33.7494C44.9265 33.7494 46.0466 36.9093 52.4199 34.6545L53.3074 35.7543H53.3084Z" fill="#BDE377"/>
</g>
<path id="Vector_7" d="M7.05913 36.9555C10.3236 36.7006 12.5309 41.9065 9.12267 43.2391C7.78891 43.7609 6.26247 42.7254 5.45383 41.5834C4.15501 39.7511 5.84118 39.0065 6.16164 37.8586L7.06013 36.9555H7.05913Z" fill="#6BA638"/>
<path id="Vector_8" d="M26.2419 56.522C24.2712 56.542 23.6023 58.1406 24.1554 60L27.1114 63.2953L28.8505 59.6347C30.5447 59.2122 27.6206 56.5089 26.2429 56.523L26.2419 56.522Z" fill="#6BA638"/>
<path id="Vector_9" d="M90.3142 16.9374L90.0147 17.0879C86.0983 16.9264 86.7722 21.2092 90.3142 21.0014C91.3156 20.9422 93.1674 20.2298 93.3162 18.9022C93.4719 17.5064 91.3964 16.9495 90.3142 16.9374Z" fill="#6BA638"/>
<path id="Vector_10" d="M68.8613 3.87938C67.7891 3.56329 67.3279 4.09011 66.656 5.19692H66.2068C66.1578 6.7563 66.5861 7.81696 68.3032 7.90928C69.3994 7.96848 70.9198 7.31924 70.9658 6.06592C71.0007 5.10059 69.7947 4.15332 68.8623 3.87938H68.8613Z" fill="#6BA638"/>
</g>
<defs>
<clipPath id="clip0_24_220">
<rect width="97" height="69" fill="white"/>
</clipPath>
</defs>
</svg>
