<svg width="59" height="92" viewBox="0 0 59 92" fill="none" xmlns="http://www.w3.org/2000/svg">
<g id="Layer_2" clip-path="url(#clip0_24_232)">
<g id="Group">
<path id="Vector" d="M20.7359 0C20.7359 0 12.4082 8.05738 10.2696 18.2C8.13107 28.3426 10.8597 50.8548 7.49259 58.4454C4.12543 66.036 0 73.1609 0 73.1609L39.1784 92C39.1784 92 46.8578 74.3595 47.6523 66.3163C48.759 55.1169 43.7698 40.5192 46.3523 33.1631C49.4161 24.435 59 8.83498 59 8.83498L20.7359 0Z" fill="#BDE377"/>
<path id="Vector_2" d="M21.8865 2.59128C21.8865 2.59128 15.4467 10.8744 13.5082 20.2547C11.5697 29.635 13.3313 50.3095 10.4477 57.3646C7.56403 64.4197 4.07379 71.0615 4.07379 71.0615L36.9981 87.2373C36.9981 87.2373 42.2049 76.7632 44.4291 66.0033C46.227 57.3036 41.3334 39.7874 43.3731 32.8926C45.4127 25.9978 53.6416 10.7697 53.6416 10.7697L21.8865 2.59128Z" fill="#6BA638"/>
<path id="Vector_3" d="M40.5807 32.2775C42.5148 24.2277 49.6898 12.3315 49.6898 12.3315L23.5723 5.26434C23.5723 5.26434 18.3974 10.869 15.8292 21.0606C13.5994 29.9098 15.4314 50.725 12.8873 57.4824C10.3433 64.2398 7.30688 70.6166 7.30688 70.6166L35.2629 82.8008C35.2629 82.8008 39.4641 74.7728 41.7587 65.4089C44.394 54.6523 38.9828 38.9258 40.5807 32.2775Z" fill="#BDE377"/>
<path id="Vector_4" d="M13.9675 38.6379C13.8807 32.7388 17.3303 29.6197 26.2295 31.3941C36.464 33.4346 42.4093 39.7339 42.3093 43.8477C42.2093 47.9614 41.5345 56.7321 29.2198 54.3273C21.0304 52.7274 13.4862 46.3157 13.4928 43.4376C13.4994 40.5595 13.9675 38.6379 13.9675 38.6379Z" fill="#6BA638"/>
<path id="Vector_5" d="M37.9003 46.524L38.2179 44.0745L36.6541 43.7801C36.9311 40.313 35.9091 37.8712 32.4309 37.1372C27.7593 36.1513 26.7109 39.7143 25.5636 41.4146C24.4163 43.1137 23.9405 44.3537 22.6207 44.0222C21.3008 43.6906 20.6096 42.8923 20.8074 41.0634C21.1525 37.8843 23.2262 38.5844 23.2262 38.5844L23.6515 35.5308C23.6515 35.5308 18.7963 34.3474 17.6776 39.3904L16.2248 39.1079L15.9468 41.1463L17.4589 41.6327C17.5336 44.6253 19.2051 46.4259 21.1382 47.0322C25.6021 48.4315 27.0769 45.3124 27.9384 43.599C28.9681 41.5509 29.8946 40.2422 31.2726 40.5072C33.0859 40.8551 33.7321 42.1627 33.2057 44.2719C32.4463 47.3191 29.455 46.4564 29.455 46.4564L29.0121 49.3182C29.0121 49.3182 34.9947 51.5201 36.3058 46.1063L37.8981 46.5262L37.9003 46.524Z" fill="#BDE377"/>
<path id="Vector_6" d="M34.8727 19.32C34.3243 20.5263 32.843 21.0399 31.5638 20.4663C30.2857 19.8937 29.6934 18.4519 30.2418 17.2457C30.7901 16.0395 32.2715 15.5258 33.5496 16.0995C34.8277 16.6721 35.42 18.1138 34.8716 19.32H34.8727Z" fill="#6BA638"/>
<path id="Vector_7" d="M25.7768 69.9567C25.2284 71.1629 23.747 71.6766 22.4678 71.103C21.1898 70.5304 20.5974 69.0886 21.1458 67.8824C21.6942 66.6762 23.1756 66.1625 24.4536 66.7362C25.7317 67.3088 26.324 68.7505 25.7757 69.9567H25.7768Z" fill="#6BA638"/>
</g>
<path id="Vector_8" d="M47.5215 10.5472C45.4357 12.0239 46.1687 16.4103 49.2974 15.0907C50.2447 14.6915 51.014 13.1734 50.9744 12.1831C50.9052 10.4938 49.7513 10.7555 48.3457 10.22L47.5215 10.5472Z" fill="#6BA638"/>
<path id="Vector_9" d="M20.6535 6.78465C21.8294 7.68113 26.6471 8.82408 26.2614 5.96343C25.8482 2.89993 21.4843 5.44212 20.8183 5.9667L20.6535 6.78465Z" fill="#6BA638"/>
<path id="Vector_10" d="M35.1596 84.6493C32.0111 84.0299 31.0221 79.1549 34.6618 78.5932C38.9289 77.9345 38.4872 83.4279 35.8189 84.8129L35.1596 84.6493Z" fill="#6BA638"/>
<path id="Vector_11" d="M5.4892 70.2544C6.79034 69.3852 6.55078 67.4876 8.45524 67.6381C9.81353 67.745 10.5575 68.8519 10.5982 70.0909C10.7059 73.3692 6.12768 72.5414 5.4881 70.7452V70.2544H5.4892Z" fill="#6BA638"/>
</g>
<defs>
<clipPath id="clip0_24_232">
<rect width="59" height="92" fill="white"/>
</clipPath>
</defs>
</svg>
