<svg width="442" height="60" viewBox="0 0 442 60" fill="none" xmlns="http://www.w3.org/2000/svg">
<path d="M8.47066 20.7406H0V1.84183H3.24351V17.7776H8.47066V20.7406Z" fill="white"/>
<path d="M19.4031 14.7079H12.2995C12.3263 16.8434 13.1573 18.5784 14.712 18.5784C15.8111 18.5784 16.4276 17.7509 16.8297 16.8167L19.0546 18.0979C18.2772 19.9665 16.8297 21.1943 14.6048 21.1943C11.4417 21.1943 9.32405 18.5784 9.32405 13.9605C9.32405 9.58283 11.4417 6.67328 14.5512 6.67328C18.0628 6.67328 19.4031 9.66291 19.4031 13.5601V14.7079ZM16.508 12.5191C16.508 10.5171 15.8915 9.10236 14.5244 9.10236C12.9697 9.10236 12.3531 11.2111 12.3263 12.5191H16.508Z" fill="white"/>
<path d="M27.5355 15.135V14.3609H26.6509C25.1766 14.3609 23.7559 14.788 23.7559 16.7366C23.7559 18.1513 24.4796 18.8187 25.3106 18.8187C26.9458 18.8187 27.5355 16.7633 27.5355 15.135ZM27.6964 18.7119H27.6427C27.2675 20.18 26.222 21.0876 24.5065 21.0876C22.9517 21.0876 21.0485 19.9932 21.0485 16.9768C21.0485 13.133 24.1044 12.2255 26.7045 12.2255H27.4551V11.7984C27.4551 10.0099 26.6509 9.23582 25.4447 9.23582C24.426 9.23582 23.5414 9.76969 22.9517 10.5438L21.5042 8.64857C22.496 7.394 24.1848 6.67328 25.6859 6.67328C29.0635 6.67328 30.2161 8.86212 30.2161 12.6525V20.7406H27.6964V18.7119Z" fill="white"/>
<path d="M42.9374 7.12707L39.3186 20.7406H35.6998L32.081 7.12707H35.2709L37.5762 17.5641H37.6298L39.8547 7.12707H42.9374Z" fill="white"/>
<path d="M54.2979 14.7079H47.1943C47.2211 16.8434 48.0521 18.5784 49.6068 18.5784C50.7059 18.5784 51.3224 17.7509 51.7245 16.8167L53.9494 18.0979C53.172 19.9665 51.7245 21.1943 49.4996 21.1943C46.3365 21.1943 44.2188 18.5784 44.2188 13.9605C44.2188 9.58283 46.3365 6.67328 49.446 6.67328C52.9576 6.67328 54.2979 9.66291 54.2979 13.5601V14.7079ZM51.4028 12.5191C51.4028 10.5171 50.7863 9.10236 49.4192 9.10236C47.8644 9.10236 47.2479 11.2111 47.2211 12.5191H51.4028Z" fill="white"/>
<path d="M65.5444 3.17648C65.5444 4.24421 64.767 5.045 63.7752 5.045C62.7566 5.045 62.006 4.24421 62.006 3.17648C62.006 2.13545 62.7566 1.28127 63.7752 1.28127C64.7938 1.28127 65.5444 2.13545 65.5444 3.17648ZM65.2763 20.7406H62.2741V7.12707H65.2763V20.7406Z" fill="white"/>
<path d="M74.3648 9.44937H71.9791V16.443C71.9791 17.9378 72.408 18.5784 73.3462 18.5784C73.6678 18.5784 74.0431 18.4983 74.2844 18.3649L74.338 20.7139C73.9091 20.9274 73.1317 21.0876 72.408 21.0876C70.1027 21.0876 69.1376 19.6461 69.1376 17.1103V9.44937H67.4221V7.12707H69.1376V3.65696H71.9791V7.12707H74.3648V9.44937Z" fill="white"/>
<path d="M87.3252 15.135V14.3609H86.4407C84.9663 14.3609 83.5456 14.788 83.5456 16.7366C83.5456 18.1513 84.2694 18.8187 85.1004 18.8187C86.7355 18.8187 87.3252 16.7633 87.3252 15.135ZM87.4861 18.7119H87.4325C87.0572 20.18 86.0118 21.0876 84.2962 21.0876C82.7414 21.0876 80.8382 19.9932 80.8382 16.9768C80.8382 13.133 83.8941 12.2255 86.4943 12.2255H87.2448V11.7984C87.2448 10.0099 86.4406 9.23582 85.2344 9.23582C84.2158 9.23582 83.3312 9.76969 82.7414 10.5438L81.2939 8.64857C82.2857 7.394 83.9745 6.67328 85.4756 6.67328C88.8532 6.67328 90.0058 8.86212 90.0058 12.6525V20.7406H87.4861V18.7119Z" fill="white"/>
<path d="M96.4813 20.7406H93.4255V0.560555H96.4813V20.7406Z" fill="white"/>
<path d="M103.183 20.7406H100.127V0.560555H103.183V20.7406Z" fill="white"/>
<path d="M117.506 9.44937H115.12V16.443C115.12 17.9378 115.549 18.5784 116.487 18.5784C116.809 18.5784 117.184 18.4983 117.425 18.3649L117.479 20.7139C117.05 20.9274 116.272 21.0876 115.549 21.0876C113.243 21.0876 112.278 19.6461 112.278 17.1103V9.44937H110.563V7.12707H112.278V3.65696H115.12V7.12707H117.506V9.44937Z" fill="white"/>
<path d="M129.385 13.9605C129.385 18.2314 127.402 21.1943 124.131 21.1943C120.861 21.1943 118.877 18.2314 118.877 13.9605C118.877 9.60953 120.834 6.67328 124.131 6.67328C127.402 6.67328 129.385 9.60953 129.385 13.9605ZM126.383 13.9338C126.383 11.3179 125.686 9.28921 124.131 9.28921C122.577 9.28921 121.907 11.3179 121.907 13.9338C121.907 16.523 122.577 18.5517 124.131 18.5517C125.713 18.5517 126.383 16.523 126.383 13.9338Z" fill="white"/>
<path d="M144.962 19.9398C144.211 20.7139 143.139 21.1943 141.772 21.1943C138.394 21.1943 136.652 18.178 136.652 13.9071C136.652 9.60953 138.475 6.67328 141.799 6.67328C143.246 6.67328 144.319 7.26053 144.935 7.87447L143.568 10.1434C143.166 9.7163 142.683 9.39598 141.933 9.39598C140.459 9.39598 139.654 11.2111 139.654 13.9071C139.654 16.6031 140.432 18.3916 142.04 18.3916C142.791 18.3916 143.3 18.0979 143.702 17.5908L144.962 19.9398Z" fill="white"/>
<path d="M156.799 20.7406H153.77V12.1988C153.77 10.8107 153.556 9.28921 152.108 9.28921C150.768 9.28921 149.883 10.8107 149.883 12.8661V20.7406H146.854V0.560555H149.883V9.23582H149.937C150.392 7.84778 151.572 6.67328 153.261 6.67328C156.263 6.67328 156.799 9.39598 156.799 12.1988V20.7406Z" fill="white"/>
<path d="M165.884 15.135V14.3609H165C163.525 14.3609 162.105 14.788 162.105 16.7366C162.105 18.1513 162.828 18.8187 163.659 18.8187C165.295 18.8187 165.884 16.7633 165.884 15.135ZM166.045 18.7119H165.992C165.616 20.18 164.571 21.0876 162.855 21.0876C161.301 21.0876 159.397 19.9932 159.397 16.9768C159.397 13.133 162.453 12.2255 165.053 12.2255H165.804V11.7984C165.804 10.0099 165 9.23582 163.793 9.23582C162.775 9.23582 161.89 9.76969 161.301 10.5438L159.853 8.64857C160.845 7.394 162.534 6.67328 164.035 6.67328C167.412 6.67328 168.565 8.86212 168.565 12.6525V20.7406H166.045V18.7119Z" fill="white"/>
<path d="M172.038 7.12707H175.014V9.28921H175.067C175.55 7.84778 176.783 6.67328 178.472 6.67328C181.447 6.67328 181.983 9.39598 181.983 12.1988V20.7406H178.954V12.1988C178.954 10.8107 178.74 9.28921 177.292 9.28921C175.952 9.28921 175.067 10.8107 175.067 12.8661V20.7406H172.038V7.12707Z" fill="white"/>
<path d="M193.024 19.9398C192.273 20.7139 191.201 21.1943 189.834 21.1943C186.457 21.1943 184.714 18.178 184.714 13.9071C184.714 9.60953 186.537 6.67328 189.861 6.67328C191.308 6.67328 192.381 7.26053 192.997 7.87447L191.63 10.1434C191.228 9.7163 190.746 9.39598 189.995 9.39598C188.521 9.39598 187.716 11.2111 187.716 13.9071C187.716 16.6031 188.494 18.3916 190.102 18.3916C190.853 18.3916 191.362 18.0979 191.764 17.5908L193.024 19.9398Z" fill="white"/>
<path d="M204.191 14.7079H197.087C197.114 16.8434 197.945 18.5784 199.5 18.5784C200.599 18.5784 201.216 17.7509 201.618 16.8167L203.843 18.0979C203.065 19.9665 201.618 21.1943 199.393 21.1943C196.23 21.1943 194.112 18.5784 194.112 13.9605C194.112 9.58283 196.23 6.67328 199.339 6.67328C202.851 6.67328 204.191 9.66291 204.191 13.5601V14.7079ZM201.296 12.5191C201.296 10.5171 200.679 9.10236 199.312 9.10236C197.758 9.10236 197.141 11.2111 197.114 12.5191H201.296Z" fill="white"/>
<path d="M217.716 15.135V14.3609H216.831C215.357 14.3609 213.936 14.788 213.936 16.7366C213.936 18.1513 214.66 18.8187 215.491 18.8187C217.126 18.8187 217.716 16.7633 217.716 15.135ZM217.877 18.7119H217.823C217.448 20.18 216.403 21.0876 214.687 21.0876C213.132 21.0876 211.229 19.9932 211.229 16.9768C211.229 13.133 214.285 12.2255 216.885 12.2255H217.636V11.7984C217.636 10.0099 216.831 9.23582 215.625 9.23582C214.607 9.23582 213.722 9.76969 213.132 10.5438L211.685 8.64857C212.677 7.394 214.365 6.67328 215.866 6.67328C219.244 6.67328 220.397 8.86212 220.397 12.6525V20.7406H217.877V18.7119Z" fill="white"/>
<path d="M223.87 7.12707H226.845V9.28921H226.899C227.381 7.84778 228.615 6.67328 230.303 6.67328C233.279 6.67328 233.815 9.39598 233.815 12.1988V20.7406H230.786V12.1988C230.786 10.8107 230.571 9.28921 229.124 9.28921C227.784 9.28921 226.899 10.8107 226.899 12.8661V20.7406H223.87V7.12707Z" fill="white"/>
<path d="M247 20.7406H244.078V18.792H244.025C243.623 20.1266 242.765 21.1943 240.969 21.1943C238.154 21.1943 236.546 17.9912 236.546 13.8003C236.546 9.68961 238.074 6.67328 240.969 6.67328C242.47 6.67328 243.569 7.60754 243.944 8.86212H244.025V0.560555H247V20.7406ZM244.132 13.9338C244.132 11.3179 243.355 9.28921 241.827 9.28921C240.245 9.28921 239.575 11.3179 239.575 13.9338C239.575 16.4964 240.245 18.5517 241.827 18.5517C243.381 18.5517 244.132 16.4964 244.132 13.9338Z" fill="white"/>
<path d="M258.94 20.7406H255.884V0.560555H258.94V20.7406Z" fill="white"/>
<path d="M271.86 14.7079H264.757C264.783 16.8434 265.614 18.5784 267.169 18.5784C268.268 18.5784 268.885 17.7509 269.287 16.8167L271.512 18.0979C270.734 19.9665 269.287 21.1943 267.062 21.1943C263.899 21.1943 261.781 18.5784 261.781 13.9605C261.781 9.58283 263.899 6.67328 267.008 6.67328C270.52 6.67328 271.86 9.66291 271.86 13.5601V14.7079ZM268.965 12.5191C268.965 10.5171 268.349 9.10236 266.982 9.10236C265.427 9.10236 264.81 11.2111 264.783 12.5191H268.965Z" fill="white"/>
<path d="M280.042 9.44937H277.657V16.443C277.657 17.9378 278.086 18.5784 279.024 18.5784C279.346 18.5784 279.721 18.4983 279.962 18.3649L280.016 20.7139C279.587 20.9274 278.809 21.0876 278.086 21.0876C275.78 21.0876 274.815 19.6461 274.815 17.1103V9.44937H273.1V7.12707H274.815V3.65696H277.657V7.12707H280.042V9.44937Z" fill="white"/>
<path d="M293.244 0.213544L293.057 2.66931C292.842 2.58923 292.547 2.53585 292.252 2.53585C290.912 2.53585 290.564 3.84381 290.564 5.20516V7.12707H292.762V9.52945H290.59V20.7406H287.642V9.52945H285.926V7.12707H287.642V5.15177C287.642 2.26892 288.794 0 291.823 0C292.252 0 292.842 0.0800784 293.244 0.213544Z" fill="white"/>
<path d="M300.202 15.135V14.3609H299.317C297.843 14.3609 296.422 14.788 296.422 16.7366C296.422 18.1513 297.146 18.8187 297.977 18.8187C299.612 18.8187 300.202 16.7633 300.202 15.135ZM300.363 18.7119H300.309C299.934 20.18 298.888 21.0876 297.173 21.0876C295.618 21.0876 293.715 19.9932 293.715 16.9768C293.715 13.133 296.771 12.2255 299.371 12.2255H300.121V11.7984C300.121 10.0099 299.317 9.23582 298.111 9.23582C297.092 9.23582 296.208 9.76969 295.618 10.5438L294.17 8.64857C295.162 7.394 296.851 6.67328 298.352 6.67328C301.73 6.67328 302.882 8.86212 302.882 12.6525V20.7406H300.363V18.7119Z" fill="white"/>
<path d="M311.744 9.44937H309.358V16.443C309.358 17.9378 309.787 18.5784 310.725 18.5784C311.047 18.5784 311.422 18.4983 311.663 18.3649L311.717 20.7139C311.288 20.9274 310.511 21.0876 309.787 21.0876C307.481 21.0876 306.516 19.6461 306.516 17.1103V9.44937H304.801V7.12707H306.516V3.65696H309.358V7.12707H311.744V9.44937Z" fill="white"/>
<path d="M323.195 14.7079H316.091C316.118 16.8434 316.949 18.5784 318.504 18.5784C319.603 18.5784 320.219 17.7509 320.621 16.8167L322.846 18.0979C322.069 19.9665 320.621 21.1943 318.396 21.1943C315.233 21.1943 313.116 18.5784 313.116 13.9605C313.116 9.58283 315.233 6.67328 318.343 6.67328C321.854 6.67328 323.195 9.66291 323.195 13.5601V14.7079ZM320.299 12.5191C320.299 10.5171 319.683 9.10236 318.316 9.10236C316.761 9.10236 316.145 11.2111 316.118 12.5191H320.299Z" fill="white"/>
<path d="M334.253 9.74299C334.709 7.74101 335.781 6.67328 337.122 6.67328C337.309 6.67328 337.417 6.67328 337.577 6.72667L337.417 9.82307C337.229 9.76969 337.041 9.74299 336.773 9.74299C335.192 9.74299 334.307 11.8251 334.307 13.9071V20.7406H331.224V7.12707H334.2V9.74299H334.253Z" fill="white"/>
<path d="M348.508 14.7079H341.405C341.432 16.8434 342.263 18.5784 343.817 18.5784C344.916 18.5784 345.533 17.7509 345.935 16.8167L348.16 18.0979C347.382 19.9665 345.935 21.1943 343.71 21.1943C340.547 21.1943 338.429 18.5784 338.429 13.9605C338.429 9.58283 340.547 6.67328 343.656 6.67328C347.168 6.67328 348.508 9.66291 348.508 13.5601V14.7079ZM345.613 12.5191C345.613 10.5171 344.997 9.10236 343.63 9.10236C342.075 9.10236 341.458 11.2111 341.432 12.5191H345.613Z" fill="white"/>
<path d="M360.551 7.12707L356.932 20.7406H353.313L349.694 7.12707H352.884L355.189 17.5641H355.243L357.468 7.12707H360.551Z" fill="white"/>
<path d="M371.911 14.7079H364.808C364.834 16.8434 365.665 18.5784 367.22 18.5784C368.319 18.5784 368.936 17.7509 369.338 16.8167L371.563 18.0979C370.785 19.9665 369.338 21.1943 367.113 21.1943C363.95 21.1943 361.832 18.5784 361.832 13.9605C361.832 9.58283 363.95 6.67328 367.059 6.67328C370.571 6.67328 371.911 9.66291 371.911 13.5601V14.7079ZM369.016 12.5191C369.016 10.5171 368.4 9.10236 367.032 9.10236C365.478 9.10236 364.861 11.2111 364.834 12.5191H369.016Z" fill="white"/>
<path d="M380.044 15.135V14.3609H379.159C377.685 14.3609 376.264 14.788 376.264 16.7366C376.264 18.1513 376.988 18.8187 377.819 18.8187C379.454 18.8187 380.044 16.7633 380.044 15.135ZM380.204 18.7119H380.151C379.776 20.18 378.73 21.0876 377.015 21.0876C375.46 21.0876 373.557 19.9932 373.557 16.9768C373.557 13.133 376.612 12.2255 379.213 12.2255H379.963V11.7984C379.963 10.0099 379.159 9.23582 377.953 9.23582C376.934 9.23582 376.05 9.76969 375.46 10.5438L374.012 8.64857C375.004 7.394 376.693 6.67328 378.194 6.67328C381.572 6.67328 382.724 8.86212 382.724 12.6525V20.7406H380.204V18.7119Z" fill="white"/>
<path d="M389.2 20.7406H386.144V0.560555H389.2V20.7406Z" fill="white"/>
<path d="M407.436 7.12707L403.335 22.6091C402.638 25.3318 401.485 27.1469 398.805 27.1469C398.081 27.1469 397.384 27.0401 396.955 26.9067L397.33 24.184C397.625 24.2907 398.054 24.3975 398.456 24.3975C399.421 24.3975 399.877 23.7836 400.118 22.7425L400.52 21.0609L396.526 7.12707H399.716L402.102 17.3772H402.182L404.353 7.12707H407.436Z" fill="white"/>
<path d="M419.224 13.9605C419.224 18.2314 417.241 21.1943 413.97 21.1943C410.7 21.1943 408.716 18.2314 408.716 13.9605C408.716 9.60953 410.673 6.67328 413.97 6.67328C417.241 6.67328 419.224 9.60953 419.224 13.9605ZM416.222 13.9338C416.222 11.3179 415.525 9.28921 413.97 9.28921C412.415 9.28921 411.745 11.3179 411.745 13.9338C411.745 16.523 412.415 18.5517 413.97 18.5517C415.552 18.5517 416.222 16.523 416.222 13.9338Z" fill="white"/>
<path d="M431.897 20.7406H428.922V18.5784H428.868C428.386 20.0198 427.153 21.1943 425.464 21.1943C422.488 21.1943 421.952 18.4716 421.952 15.6689V7.12707H424.981V15.6689C424.981 17.0569 425.196 18.5517 426.643 18.5517C427.984 18.5517 428.868 17.0569 428.868 15.0015V7.12707H431.897V20.7406Z" fill="white"/>
<path d="M438.676 9.74299C439.132 7.74101 440.204 6.67328 441.544 6.67328C441.732 6.67328 441.839 6.67328 442 6.72667L441.839 9.82307C441.651 9.76969 441.464 9.74299 441.196 9.74299C439.614 9.74299 438.73 11.8251 438.73 13.9071V20.7406H435.647V7.12707H438.622V9.74299H438.676Z" fill="white"/>
<path d="M121.246 39.9801L118.27 53.5936H115.027L113.07 44.2777H113.043L111.086 53.5936H107.923L105.001 39.9801H108.111L109.773 49.9901H109.826L111.783 39.9801H114.464L116.474 49.9901H116.528L118.217 39.9801H121.246Z" fill="white"/>
<path d="M126.735 36.0296C126.735 37.0973 125.957 37.8981 124.965 37.8981C123.947 37.8981 123.196 37.0973 123.196 36.0296C123.196 34.9885 123.947 34.1344 124.965 34.1344C125.984 34.1344 126.735 34.9885 126.735 36.0296ZM126.467 53.5936H123.464V39.9801H126.467V53.5936Z" fill="white"/>
<path d="M130.167 39.9801H133.142V42.1423H133.196C133.679 40.7009 134.912 39.5264 136.6 39.5264C139.576 39.5264 140.112 42.2491 140.112 45.0518V53.5936H137.083V45.0518C137.083 43.6638 136.869 42.1423 135.421 42.1423C134.081 42.1423 133.196 43.6638 133.196 45.7192V53.5936H130.167V39.9801Z" fill="white"/>
<path d="M143.701 39.9801H146.676V42.1423H146.73C147.212 40.7009 148.446 39.5264 150.134 39.5264C153.11 39.5264 153.646 42.2491 153.646 45.0518V53.5936H150.617V45.0518C150.617 43.6638 150.402 42.1423 148.955 42.1423C147.615 42.1423 146.73 43.6638 146.73 45.7192V53.5936H143.701V39.9801Z" fill="white"/>
<path d="M160.451 36.0296C160.451 37.0973 159.674 37.8981 158.682 37.8981C157.664 37.8981 156.913 37.0973 156.913 36.0296C156.913 34.9885 157.664 34.1344 158.682 34.1344C159.701 34.1344 160.451 34.9885 160.451 36.0296ZM160.183 53.5936H157.181V39.9801H160.183V53.5936Z" fill="white"/>
<path d="M163.884 39.9801H166.859V42.1423H166.913C167.395 40.7009 168.628 39.5264 170.317 39.5264C173.293 39.5264 173.829 42.2491 173.829 45.0518V53.5936H170.8V45.0518C170.8 43.6638 170.585 42.1423 169.138 42.1423C167.798 42.1423 166.913 43.6638 166.913 45.7192V53.5936H163.884V39.9801Z" fill="white"/>
<path d="M186.961 53.2199C186.961 57.2506 185.433 60 181.439 60C179.562 60 177.713 59.1992 176.614 57.998L178.249 55.8359C179.026 56.6901 180.098 57.3307 181.358 57.3307C183.369 57.3307 184.012 55.6223 184.012 53.4335V51.7785H183.958C183.556 52.9797 182.43 53.9407 180.956 53.9407C178.034 53.9407 176.533 50.9243 176.533 46.7869C176.533 42.5961 178.115 39.5264 180.956 39.5264C182.698 39.5264 183.556 40.5407 183.985 41.9021H184.066V39.9801H186.961V53.2199ZM184.092 46.7602C184.092 44.171 183.342 42.1423 181.814 42.1423C180.232 42.1423 179.562 44.171 179.562 46.7602C179.562 49.3494 180.232 51.4048 181.814 51.4048C183.315 51.4048 184.092 49.3494 184.092 46.7602Z" fill="white"/>
<path d="M203.325 52.7929C202.574 53.567 201.502 54.0474 200.135 54.0474C196.758 54.0474 195.015 51.0311 195.015 46.7602C195.015 42.4626 196.838 39.5264 200.162 39.5264C201.609 39.5264 202.682 40.1136 203.298 40.7276L201.931 42.9965C201.529 42.5694 201.046 42.2491 200.296 42.2491C198.822 42.2491 198.017 44.0642 198.017 46.7602C198.017 49.4562 198.795 51.2446 200.403 51.2446C201.154 51.2446 201.663 50.951 202.065 50.4439L203.325 52.7929Z" fill="white"/>
<path d="M214.921 46.8136C214.921 51.0845 212.937 54.0474 209.667 54.0474C206.397 54.0474 204.413 51.0845 204.413 46.8136C204.413 42.4626 206.37 39.5264 209.667 39.5264C212.937 39.5264 214.921 42.4626 214.921 46.8136ZM211.919 46.7869C211.919 44.171 211.222 42.1423 209.667 42.1423C208.112 42.1423 207.442 44.171 207.442 46.7869C207.442 49.3761 208.112 51.4048 209.667 51.4048C211.248 51.4048 211.919 49.3761 211.919 46.7869Z" fill="white"/>
<path d="M220.839 42.1423C221.214 40.7009 222.394 39.5264 224.163 39.5264C226.093 39.5264 226.977 40.7542 227.353 42.1423H227.406C227.862 40.861 229.015 39.5264 230.998 39.5264C233.974 39.5264 234.51 42.2491 234.51 45.0518V53.5936H231.481V45.0518C231.481 43.6638 231.266 42.1423 229.819 42.1423C228.479 42.1423 227.594 43.6638 227.594 45.7192V53.5936H224.618V45.0518C224.618 43.6638 224.404 42.1423 222.983 42.1423C221.643 42.1423 220.812 43.6638 220.812 45.6925V53.5936H217.81V39.9801H220.785V42.1423H220.839Z" fill="white"/>
<path d="M238.071 53.5936V33.4136H241.1V41.6885H241.153C241.529 40.4606 242.654 39.5264 244.129 39.5264C247.024 39.5264 248.552 42.516 248.552 46.6534C248.552 50.8443 246.943 54.0474 244.129 54.0474C242.333 54.0474 241.502 52.9797 241.073 51.6451H241.019V53.5936H238.071ZM240.992 46.7869C240.992 49.3494 241.743 51.4048 243.271 51.4048C244.826 51.4048 245.496 49.3494 245.496 46.7869C245.496 44.1977 244.826 42.1423 243.271 42.1423C241.743 42.1423 240.992 44.1977 240.992 46.7869Z" fill="white"/>
<path d="M254.691 36.0296C254.691 37.0973 253.914 37.8981 252.922 37.8981C251.903 37.8981 251.153 37.0973 251.153 36.0296C251.153 34.9885 251.903 34.1344 252.922 34.1344C253.94 34.1344 254.691 34.9885 254.691 36.0296ZM254.423 53.5936H251.421V39.9801H254.423V53.5936Z" fill="white"/>
<path d="M258.123 39.9801H261.099V42.1423H261.152C261.635 40.7009 262.868 39.5264 264.557 39.5264C267.532 39.5264 268.068 42.2491 268.068 45.0518V53.5936H265.039V45.0518C265.039 43.6638 264.825 42.1423 263.377 42.1423C262.037 42.1423 261.152 43.6638 261.152 45.7192V53.5936H258.123V39.9801Z" fill="white"/>
<path d="M277.152 47.9881V47.214H276.268C274.793 47.214 273.373 47.6411 273.373 49.5897C273.373 51.0044 274.097 51.6717 274.927 51.6717C276.563 51.6717 277.152 49.6164 277.152 47.9881ZM277.313 51.565H277.26C276.884 53.0331 275.839 53.9407 274.123 53.9407C272.569 53.9407 270.665 52.8462 270.665 49.8299C270.665 45.9861 273.721 45.0785 276.321 45.0785H277.072V44.6514C277.072 42.863 276.268 42.0889 275.062 42.0889C274.043 42.0889 273.158 42.6228 272.569 43.3969L271.121 41.5017C272.113 40.2471 273.802 39.5264 275.303 39.5264C278.68 39.5264 279.833 41.7152 279.833 45.5056V53.5936H277.313V51.565Z" fill="white"/>
<path d="M288.694 42.3025H286.308V49.2961C286.308 50.7909 286.737 51.4315 287.676 51.4315C287.997 51.4315 288.373 51.3514 288.614 51.218L288.667 53.567C288.238 53.7805 287.461 53.9407 286.737 53.9407C284.432 53.9407 283.467 52.4992 283.467 49.9634V42.3025H281.751V39.9801H283.467V36.51H286.308V39.9801H288.694V42.3025Z" fill="white"/>
<path d="M294.141 36.0296C294.141 37.0973 293.363 37.8981 292.371 37.8981C291.353 37.8981 290.602 37.0973 290.602 36.0296C290.602 34.9885 291.353 34.1344 292.371 34.1344C293.39 34.1344 294.141 34.9885 294.141 36.0296ZM293.873 53.5936H290.87V39.9801H293.873V53.5936Z" fill="white"/>
<path d="M307.223 46.8136C307.223 51.0845 305.24 54.0474 301.969 54.0474C298.699 54.0474 296.715 51.0845 296.715 46.8136C296.715 42.4626 298.672 39.5264 301.969 39.5264C305.24 39.5264 307.223 42.4626 307.223 46.8136ZM304.221 46.7869C304.221 44.171 303.524 42.1423 301.969 42.1423C300.414 42.1423 299.744 44.171 299.744 46.7869C299.744 49.3761 300.414 51.4048 301.969 51.4048C303.551 51.4048 304.221 49.3761 304.221 46.7869Z" fill="white"/>
<path d="M310.112 39.9801H313.088V42.1423H313.141C313.624 40.7009 314.857 39.5264 316.546 39.5264C319.521 39.5264 320.057 42.2491 320.057 45.0518V53.5936H317.028V45.0518C317.028 43.6638 316.814 42.1423 315.366 42.1423C314.026 42.1423 313.141 43.6638 313.141 45.7192V53.5936H310.112V39.9801Z" fill="white"/>
<path d="M327.506 47.5076H324.423V34.6949H327.506V47.5076ZM327.801 51.8586C327.801 52.953 327.023 53.8072 325.978 53.8072C324.906 53.8072 324.155 52.953 324.155 51.8586C324.155 50.8176 324.906 49.91 325.978 49.91C327.023 49.91 327.801 50.8176 327.801 51.8586Z" fill="white"/>
</svg>
