<svg width="295" height="28" viewBox="0 0 295 28" fill="none" xmlns="http://www.w3.org/2000/svg">
<path d="M37.25 17.088H29.27L28.724 20.28H38.51L37.334 27H19.568L24.188 0.75H41.744L39.56 7.47H30.95L30.362 10.998H38.342L37.25 17.088ZM18.308 26.874L0.5 24.984H18.644L18.308 26.874ZM19.736 18.768L1.928 16.878H20.072L19.736 18.768ZM20.45 14.736L2.642 12.846H20.786L20.45 14.736ZM21.164 10.704L3.356 8.814H21.5L21.164 10.704ZM21.878 6.672L4.07 4.782H22.172L21.878 6.672ZM19.022 22.8L1.214 20.91H19.358L19.022 22.8ZM22.55 2.64L4.784 0.75H22.886L22.55 2.64ZM57.9386 27H49.5386L60.5846 0.75H72.9326L74.7806 27H66.3386L66.1706 22.842H59.5766L57.9386 27ZM65.5406 16.164V8.814H65.1206L62.1806 16.164H65.5406ZM48.1946 26.832L30.9746 24.984H48.9926L48.1946 26.832ZM49.9166 22.758L32.6966 20.91H50.7146L49.9166 22.758ZM51.6386 18.726L34.4186 16.878H52.3946L51.6386 18.726ZM53.3186 14.694L36.1406 12.846H54.1166L53.3186 14.694ZM55.0406 10.662L37.8626 8.814H55.7966L55.0406 10.662ZM58.4426 2.556L41.3066 0.75H59.1986L58.4426 2.556ZM56.7206 6.588L39.5846 4.782H57.4766L56.7206 6.588ZM58.4426 2.556L59.1986 0.75H41.3066L58.4426 2.556ZM88.0352 10.704L70.2272 8.814H88.3292C88.1892 9.374 88.0912 10.004 88.0352 10.704ZM89.4632 4.782L88.8332 6.63L71.4032 4.782H89.4632ZM88.0352 12.846C88.0912 13.602 88.2032 14.232 88.3712 14.736L70.6052 12.846H88.0352ZM93.9152 18.768L71.6972 16.878H89.7992C90.7232 17.774 92.0952 18.404 93.9152 18.768ZM92.6132 0.75C91.9692 1.17 91.3532 1.744 90.7652 2.472L74.5532 0.75H92.6132ZM70.9832 20.91H86.6912L86.0612 22.758L70.9832 20.91ZM70.2692 24.984H85.3472L84.7172 26.832L70.2692 24.984ZM88.4972 19.608C90.8492 20.252 92.9912 20.574 94.9232 20.574C96.8832 20.574 98.4792 20.49 99.7112 20.322L100.047 18.222L96.5612 17.886C93.9012 17.634 92.0112 17.032 90.8912 16.08C89.7992 15.128 89.2532 13.784 89.2532 12.048C89.2532 11.292 89.3372 10.452 89.5052 9.528C90.1492 5.944 91.3252 3.48 93.0332 2.136C94.7412 0.791999 97.3592 0.119998 100.887 0.119998C104.443 0.119998 107.579 0.469999 110.295 1.17L108.111 7.89C105.675 7.47 103.715 7.26 102.231 7.26C100.775 7.26 99.5152 7.33 98.4512 7.47L98.1152 9.528L100.929 9.822C103.785 10.13 105.815 10.816 107.019 11.88C108.223 12.916 108.825 14.316 108.825 16.08C108.825 17.872 108.447 19.72 107.691 21.624C107.271 22.604 106.823 23.43 106.347 24.102C105.899 24.746 105.311 25.306 104.583 25.782C103.883 26.23 103.239 26.58 102.651 26.832C102.063 27.056 101.307 27.224 100.383 27.336C99.0952 27.532 97.4992 27.63 95.5952 27.63C92.1232 27.63 88.9732 27.266 86.1452 26.538L88.4972 19.608ZM120.495 26.874L102.729 24.984H120.831L120.495 26.874ZM121.209 22.8L103.443 20.91H121.503L121.209 22.8ZM121.503 18.768L103.695 16.878H121.125L121.503 18.768ZM120.705 14.736L102.897 12.846H120.327L120.705 14.736ZM118.731 4.782L119.109 6.672L101.343 4.782H118.731ZM119.529 8.814L119.907 10.704L102.141 8.814H119.529ZM118.353 2.64L100.587 0.75H117.975L118.353 2.64ZM128.055 0.75L128.601 9.99H128.895L132.759 0.75H141.579L130.995 19.86L129.777 27H121.797L123.015 19.86L119.235 0.75H128.055ZM170.958 0.75C174.57 0.75 177.132 1.394 178.644 2.682C180.184 3.942 180.954 6 180.954 8.856C180.954 10.312 180.786 11.992 180.45 13.896C179.61 18.6 178.168 21.96 176.124 23.976C174.108 25.992 170.846 27 166.338 27H155.166L159.786 0.75H170.958ZM169.866 7.47H166.548L164.322 20.28H167.64C168.732 20.28 169.544 20.154 170.076 19.902C170.608 19.622 170.958 19.006 171.126 18.054L172.596 9.696C172.624 9.528 172.638 9.304 172.638 9.024C172.638 8.38 172.414 7.96 171.966 7.764C171.518 7.568 170.818 7.47 169.866 7.47ZM153.906 26.874L136.098 24.984H154.242L153.906 26.874ZM155.334 18.768L137.526 16.878H155.67L155.334 18.768ZM156.048 14.736L138.24 12.846H156.384L156.048 14.736ZM156.762 10.704L138.954 8.814H157.098L156.762 10.704ZM157.476 6.672L139.668 4.782H157.77L157.476 6.672ZM154.62 22.8L136.812 20.91H154.956L154.62 22.8ZM158.148 2.64L140.382 0.75H158.484L158.148 2.64ZM207.7 0.75C212.488 0.75 214.882 2.892 214.882 7.176C214.882 8.94 214.616 10.62 214.084 12.216C213.104 15.24 211.564 17.256 209.464 18.264L212.236 27H203.458L201.526 19.188H199.804L198.46 27H190.48L195.1 0.75H207.7ZM202.786 12.72C203.738 12.72 204.452 12.622 204.928 12.426C205.432 12.202 205.768 11.6 205.936 10.62C206.132 9.612 206.23 8.996 206.23 8.772C206.23 8.212 206.006 7.862 205.558 7.722C205.138 7.554 204.438 7.47 203.458 7.47H201.862L200.938 12.72H202.786ZM189.22 26.874L171.412 24.984H189.556L189.22 26.874ZM190.648 18.768L172.84 16.878H190.984L190.648 18.768ZM192.034 10.704L174.268 8.814H192.37L192.034 10.704ZM192.748 6.672L174.982 4.782H193.084L192.748 6.672ZM189.934 22.8L172.126 20.91H190.27L189.934 22.8ZM193.462 2.64L175.696 0.75H193.798L193.462 2.64ZM191.32 14.736L173.554 12.846H191.656L191.32 14.736ZM231.763 27H223.363L234.409 0.75H246.757L248.605 27H240.163L239.995 22.842H233.401L231.763 27ZM239.365 16.164V8.814H238.945L236.005 16.164H239.365ZM222.019 26.832L204.799 24.984H222.817L222.019 26.832ZM223.741 22.758L206.521 20.91H224.539L223.741 22.758ZM225.463 18.726L208.243 16.878H226.219L225.463 18.726ZM227.143 14.694L209.965 12.846H227.941L227.143 14.694ZM228.865 10.662L211.687 8.814H229.621L228.865 10.662ZM232.267 2.556L215.131 0.75H233.023L232.267 2.556ZM230.545 6.588L213.409 4.782H231.301L230.545 6.588ZM232.267 2.556L233.023 0.75H215.131L232.267 2.556ZM260.389 0.75V2.64L243.883 0.75H260.389ZM260.389 4.782V6.672L243.883 4.782H260.389ZM260.389 8.814V10.704L243.883 8.814H260.389ZM260.389 12.846V14.736L243.883 12.846H260.389ZM260.389 16.878V18.768L243.883 16.878H260.389ZM260.389 20.91V22.8L243.883 20.91H260.389ZM260.389 24.984V26.874L243.883 24.984H260.389ZM275.299 27V17.34H274.837L271.351 27H261.649V0.75H270.007L269.251 15.408H269.503L274.963 0.75H281.305V15.408H281.557L286.051 0.75H294.409L285.883 27H275.299Z" fill="white"/>
</svg>
