<svg width="74" height="67" viewBox="0 0 74 67" fill="none" xmlns="http://www.w3.org/2000/svg">
<g id="Layer_2" clip-path="url(#clip0_24_274)">
<g id="Group">
<path id="Vector" d="M0 12.3421C0 12.3421 1.43633 19.7618 8.50599 27.4346C12.6274 31.9079 27.4798 28.7114 34.4415 40.784C40.556 51.3859 39.5181 67 39.5181 67L73.9859 46.6412C73.9859 46.6412 74.6939 31.9477 65.5162 22.1245C59.2999 15.4722 45.0778 18.8147 37.0973 10.8081C33.4813 7.17988 28.5752 0 28.5752 0L0 12.3421Z" fill="#BDE377"/>
<path id="Vector_2" d="M2.53473 13.6372C2.53473 13.6372 4.31803 19.7893 10.6615 25.8945C14.3834 29.4768 31.0323 27.2305 36.9793 37.4385C42.2021 46.4034 42.3726 61.6398 42.3726 61.6398L71.8132 44.5888C71.8132 44.5888 70.9115 30.825 63.0571 22.5266C57.7374 16.9062 42.7498 19.3454 35.9192 12.5829C32.8236 9.51807 28.3886 2.0912 28.3886 2.0912L2.53473 13.6372Z" fill="#6BA638"/>
<path id="Vector_3" d="M4.95654 14.7843C4.95654 14.7843 6.22644 19.1555 12.2723 24.5484C17.7463 29.4309 32.866 25.4291 38.3693 35.7249C43.2027 44.7674 44.1458 57.6932 44.1458 57.6932L69.3269 43.113C69.3269 43.113 69.1494 32.459 61.992 24.0217C57.1444 18.3074 39.9397 19.9281 34.0129 12.7901C31.1443 9.33538 28.1849 4.10075 28.1849 4.10075L4.95654 14.7843Z" fill="#BDE377"/>
<path id="Vector_4" d="M30.769 30.5546C27.9085 29.3237 25.0832 26.3528 30.3756 22.8419C36.4487 18.8126 44.1054 17.7226 49.7035 18.6677C55.3015 19.6128 58.6392 23.7441 51.7026 28.1164C44.7651 32.4876 38.5074 33.8143 35.9374 33.2112C33.3673 32.608 30.77 30.5546 30.77 30.5546H30.769Z" fill="#6BA638"/>
<path id="Vector_5" d="M26.6799 15.0078C27.038 16.0733 26.3259 17.2817 25.0893 17.7083C23.8517 18.1349 22.5586 17.6165 22.2005 16.552C21.8424 15.4865 22.5545 14.2781 23.7911 13.8515C25.0288 13.4249 26.3219 13.9434 26.6799 15.0078Z" fill="#6BA638"/>
<path id="Vector_6" d="M58.6966 38.4846C59.1314 39.7777 58.4818 41.1718 57.2442 41.5974C56.0076 42.024 54.6519 41.3208 54.2162 40.0277C53.7815 38.7346 54.431 37.3405 55.6687 36.9149C56.9053 36.4883 58.2609 37.1915 58.6966 38.4846Z" fill="#6BA638"/>
<path id="Vector_7" d="M47.4421 21.1671L48.4719 20.515L46.6775 19.6291L45.5388 20.419C44.5846 20.167 43.6062 20.0537 42.89 20.0996C41.0926 20.2159 36.7534 21.5162 37.9043 23.3706C38.8978 24.9719 42.541 26.1405 39.4344 27.5918C37.9466 28.2868 35.1607 27.1876 35.0841 25.9721C35.0266 25.0628 35.7447 24.48 35.7447 24.48L34.378 23.3492C34.378 23.3492 30.7963 25.9017 33.8404 28.5409C33.8434 28.544 33.8464 28.546 33.8495 28.5481L32.6562 29.3758L34.3286 30.2453L35.4895 29.5095C37.5643 30.3198 40.2534 30.2076 42.0478 29.2349C44.1408 28.1 43.6909 25.866 42.4906 24.9831C41.2903 24.1003 39.7561 23.1226 40.8707 22.3408C41.9853 21.559 44.0278 21.2743 45.213 22.0806C46.3981 22.8868 45.6003 24.2861 45.6003 24.2861L47.669 25.1577C47.669 25.1577 49.3656 23.7003 48.6091 22.248C48.3923 21.8326 47.9716 21.4692 47.4411 21.1651L47.4421 21.1671Z" fill="#BDE377"/>
</g>
<path id="Vector_8" d="M67.6727 45.096C67.2359 43.8692 66.4684 39.0622 69.4913 40.041C70.5564 40.3859 70.6301 42.1108 70.5463 43.1058C70.4122 44.7112 69.8433 44.5367 68.4282 45.2491L67.6717 45.096H67.6727Z" fill="#6BA638"/>
<path id="Vector_9" d="M43.1634 59.4864C43.2078 57.7902 41.5667 52.18 45.3955 54.3161C47.9868 55.7612 45.8081 60.0038 43.7686 59.4864H43.1634Z" fill="#6BA638"/>
<path id="Vector_10" d="M4.58433 17.3889C5.65451 17.0327 9.11722 14.5496 6.81951 13.4433C6.2012 13.1453 4.26761 13.8536 3.94181 14.4343C3.48994 15.2416 4.34124 16.2193 4.73563 17.0817L4.58433 17.3879V17.3889Z" fill="#6BA638"/>
<path id="Vector_11" d="M26.5216 4.07013L26.0677 3.76395C25.877 5.22238 27.8318 8.45461 29.5506 6.8288C30.6228 5.81535 28.3634 2.4974 26.5216 4.07013Z" fill="#6BA638"/>
</g>
<defs>
<clipPath id="clip0_24_274">
<rect width="74" height="67" fill="white"/>
</clipPath>
</defs>
</svg>
