<svg width="70" height="70" viewBox="0 0 70 70" fill="none" xmlns="http://www.w3.org/2000/svg">
<g id="Layer_2" clip-path="url(#clip0_23_205)">
<g id="Group">
<path id="Vector" d="M15.1367 29.8052C16.1417 30.1676 19.5859 36.6487 32.8889 41.0273C38.8734 42.9974 50.5619 39.9371 50.5619 39.9371L70.001 67.0641C70.001 67.0641 64.3 69.4786 56.5771 69.8884C38.6058 70.8433 31.531 65.3162 31.531 65.3162L26.9738 61.2032L15.1367 29.8042V29.8052Z" fill="#A8C469"/>
<path id="Vector_2" d="M22.7882 38.1201C22.7882 38.1201 30.1583 42.793 35.6254 43.2146C40.1053 43.5603 49.9662 41.8282 49.9662 41.8282L66.6975 65.6549C66.6975 65.6549 53.7919 68.8762 47.4764 67.9065C27.737 64.8778 27.0521 60.7006 27.0521 60.7006L26.1462 58.9448C26.1462 58.9448 34.7978 64.9627 46.8728 65.9966C56.2619 66.8005 63.5963 64.2981 63.5963 64.2981L49.2535 43.5781C49.2535 43.5781 40.8883 45.1867 35.9495 44.7947C31.0107 44.4016 22.813 40.0714 22.813 40.0714L22.7892 38.121L22.7882 38.1201Z" fill="#639334"/>
<path id="Vector_3" d="M18.9119 38.8054C21.5443 40.2501 26.5932 42.5678 29.3862 45.8513C31.2951 48.0959 34.6501 54.5592 34.1724 57.2324C33.8473 59.0534 32.1574 61.1963 28.5259 59.4741C24.8944 57.7519 21.4313 55.3729 21.4313 55.3729L18.9119 38.8054Z" fill="#639334"/>
<path id="Vector_4" d="M24.1481 44.3029L23.8319 43.2216L25.6199 43.7222L25.9272 44.9645C26.7438 45.3803 27.4941 45.9066 27.9629 46.3796C29.1414 47.5686 31.3596 51.1345 29.4259 51.6934C27.7558 52.1763 24.5098 50.7286 25.7795 53.6379C26.388 55.0312 28.9957 55.998 29.7936 55.213C30.3902 54.6264 30.2475 53.784 30.2475 53.784L31.8888 53.8531C31.8888 53.8531 32.8165 57.8091 29.0859 57.737C29.0819 57.737 29.079 57.737 29.075 57.737L29.3971 59.0396L27.7033 58.6031L27.3465 57.3835C25.4088 56.6587 23.6089 54.9226 22.9577 53.15C22.1985 51.0832 23.8775 49.832 25.2522 49.9673C26.6269 50.1035 28.291 50.381 27.9937 49.1585C27.6973 47.936 26.4525 46.4813 25.1362 46.3016C23.82 46.1219 23.5177 47.5716 23.5177 47.5716L21.5473 46.8922C21.5473 46.8922 21.2599 44.848 22.6742 44.3217C23.0786 44.1706 23.594 44.1824 24.1481 44.3009V44.3029Z" fill="#A8C469"/>
<path id="Vector_5" d="M3.4778 0L28.4862 24.1694C28.4862 24.1694 24.3472 36.5736 24.8358 43.3144C26.0361 59.8948 31.5676 65.3439 31.5676 65.3439C31.5676 65.3439 25.2233 61.8165 18.0981 52.0174C7.24214 37.0921 1.16647 24.3185 1.16647 24.3185C1.16647 24.3185 -0.348976 19.3346 0.0742388 14.238C0.498445 9.14241 3.4778 0 3.4778 0Z" fill="#BDE377"/>
<path id="Vector_6" d="M28.3525 63.043C28.3525 63.043 23.5762 56.8828 22.5504 46.4626C21.9507 40.3775 25.9202 25.3061 25.9202 25.3061L4.34912 3.4326C4.34912 3.4326 2.34802 10.1517 1.67008 14.2963C0.645245 20.5591 2.08537 26.2521 2.08537 26.2521L3.74255 29.3697C3.74255 29.3697 2.5403 25.2498 3.31338 17.0633C3.60973 13.92 5.56525 7.43006 5.62372 7.58609C5.68319 7.74212 23.711 26.0793 23.711 26.0793C23.711 26.0793 20.7931 40.5069 20.9378 45.3497C21.2183 54.7439 25.8379 60.9633 25.8379 60.9633L28.3544 63.0449L28.3525 63.043Z" fill="#6BA638"/>
<path id="Vector_7" d="M21.8139 56.7061C21.8139 56.7061 21.1618 54.3736 18.1715 48.1582C15.8651 43.3638 11.6984 39.1342 10.5427 38.915C9.78848 38.7718 9.55259 38.9911 9.47925 39.1609C11.8867 43.0576 14.7927 47.4778 18.1576 52.1053C19.4104 53.8285 20.6394 55.3561 21.8139 56.7061Z" fill="#6BA638"/>
<path id="Vector_8" d="M48.5548 57.2927C47.5914 57.9592 46.0403 57.3964 45.0907 56.0346C44.1412 54.6728 44.1531 53.0276 45.1165 52.361C46.0799 51.6944 47.631 52.2573 48.5805 53.6191C49.53 54.9809 49.5182 56.6261 48.5548 57.2927Z" fill="#639334"/>
<path id="Vector_9" d="M14.2525 29.5909C13.2852 30.4273 11.6171 30.0916 10.5259 28.8394C9.43463 27.5872 9.33354 25.8946 10.2999 25.0572C11.2672 24.2208 12.9353 24.5565 14.0266 25.8087C15.1178 27.0609 15.2189 28.7535 14.2525 29.5909Z" fill="#6BA638"/>
</g>
<path id="Vector_10" d="M63.6944 65.3093C61.9014 66.7284 58.0251 64.9637 60.16 62.643C61.6913 60.9781 64.8015 63.1703 64.2891 64.8649L63.6944 65.3093Z" fill="#639334"/>
<path id="Vector_11" d="M48.6797 42.795C45.853 42.5589 45.7162 45.0445 48.3823 45.6015C49.5211 45.8395 50.5113 46.0844 50.6124 44.7206C50.6818 43.7923 49.7124 42.791 48.977 42.795H48.6797Z" fill="#639334"/>
<path id="Vector_12" d="M23.1094 24.28C21.9368 22.857 21.024 24.758 21.028 25.9094C21.0329 27.0599 21.3739 28.71 22.3293 29.4931C23.6356 30.5636 24.1986 29.0872 24.5634 27.6869C24.9172 26.3291 24.4851 25.5825 23.5554 24.5763L23.1094 24.28Z" fill="#6BA638"/>
<path id="Vector_13" d="M4.67521 5.17261H4.2292C3.8942 7.0953 3.33817 13.3196 7.20162 11.0967C9.97185 9.50286 6.17976 6.35664 4.67521 5.17261Z" fill="#6BA638"/>
</g>
<defs>
<clipPath id="clip0_23_205">
<rect width="70" height="70" fill="white"/>
</clipPath>
</defs>
</svg>
