<svg width="124" height="140" viewBox="0 0 124 140" fill="none" xmlns="http://www.w3.org/2000/svg">
<g id="Layer_2" clip-path="url(#clip0_24_287)">
<g id="Group">
<path id="Vector" d="M100.935 114.858C100.935 114.858 104.991 100.647 100.884 88.0784C96.776 75.5098 79.4038 52.379 78.2805 41.8465C77.1573 31.314 77.1684 20.8125 77.1684 20.8125L21.8885 24.9783C21.8885 24.9783 24.66 49.3628 28.9128 58.7551C34.8341 71.8332 49.6545 84.7793 51.4946 94.5525C53.6783 106.148 53.0452 129.493 53.0452 129.493L100.935 114.858Z" fill="#BDE377"/>
<path id="Vector_2" d="M98.0112 112.729C98.0112 112.729 99.8392 99.472 95.9969 87.8732C92.1545 76.2744 77.0224 54.5572 75.7067 44.9245C74.391 35.2919 74.0089 25.7291 74.0089 25.7291L27.334 28.8498C27.334 28.8498 28.265 43.7408 32.6718 57.0459C36.2354 67.8033 52.8116 84.0344 54.957 92.9519C57.1024 101.869 57.7284 123.939 57.7284 123.939L98.0112 112.729Z" fill="#6BA638"/>
<path id="Vector_3" d="M58.4329 91.8511C61.4315 101.977 61.0962 119.694 61.0962 119.694L94.4446 110.85C94.4446 110.85 96.5844 101.359 92.9198 88.4625C89.7378 77.2648 74.4383 55.437 72.9375 46.3498C71.4368 37.2626 70.7225 28.282 70.7225 28.282L32.0799 32.6448C32.0799 32.6448 32.5611 44.1923 35.9998 56C39.9506 69.5636 55.9569 83.4876 58.4329 91.8511Z" fill="#BDE377"/>
<path id="Vector_4" d="M83.7643 67.8571C87.6227 74.3188 85.8029 79.964 74.844 83.6774C62.2408 87.9482 51.6577 84.7794 49.1442 80.1709C46.6308 75.5625 41.7817 65.4429 56.9144 60.2483C66.9782 56.7947 79.3986 59.0681 81.2271 62.2519C83.0555 65.4357 83.7643 67.8571 83.7643 67.8571Z" fill="#6BA638"/>
<path id="Vector_5" d="M52.3059 74.4033L53.5175 77.3118L55.4322 76.6402C57.3378 80.6469 60.0239 82.693 64.3329 81.2863C70.1204 79.3971 69.0055 74.7925 69.188 72.1827C69.3712 69.574 69.1057 67.9008 70.7746 67.4256C72.4435 66.9504 73.7161 67.3916 74.6642 69.5383C76.3109 73.2704 73.5743 73.819 73.5743 73.819L75.0524 77.4637C75.0524 77.4637 81.1686 75.6756 79.1874 69.3911L80.9719 68.7769L79.9788 66.3478L77.9987 66.7745C76.0074 63.5161 73.0131 62.5925 70.4918 63.155C64.6699 64.4552 65.0308 68.8413 65.1722 71.2834C65.3415 74.2026 65.1533 76.2391 63.4624 76.8249C61.2382 77.5966 59.6906 76.564 58.9266 73.8982C57.8216 70.0477 61.675 69.0936 61.675 69.0936L60.3388 65.6497C60.3388 65.6497 52.3278 67.0314 54.3331 73.8481L52.3069 74.3995L52.3059 74.4033Z" fill="#BDE377"/>
<path id="Vector_6" d="M73.0007 102.527C72.8369 100.845 74.1451 99.3327 75.9235 99.1509C77.7001 98.9686 79.2738 100.184 79.4376 101.866C79.6014 103.548 78.2932 105.06 76.5159 105.241C74.7394 105.423 73.1657 104.208 73.0019 102.526L73.0007 102.527Z" fill="#6BA638"/>
<path id="Vector_7" d="M50.7475 40.7865C50.5837 39.1043 51.8919 37.5924 53.6704 37.4106C55.4469 37.2283 57.0206 38.4435 57.1844 40.1256C57.3482 41.8078 56.04 43.3198 54.2628 43.5008C52.4862 43.6831 50.9125 42.468 50.7487 40.7858L50.7475 40.7865Z" fill="#6BA638"/>
</g>
<path id="Vector_8" d="M64.6285 120.283C65.9899 117.322 62.3827 112.943 59.7695 116.396C58.978 117.441 59.0968 119.608 59.7721 120.677C60.9261 122.499 62.0334 121.474 63.927 121.17L64.6285 120.283Z" fill="#6BA638"/>
<path id="Vector_9" d="M96.6981 107.31C94.8278 107.069 88.7787 108.878 91.0292 111.792C93.4395 114.913 96.637 109.323 97.0378 108.319L96.6981 107.31Z" fill="#6BA638"/>
<path id="Vector_10" d="M31.0149 30.5368C34.8868 29.2138 39.0884 33.9689 35.4274 36.9099C31.1354 40.3582 28.1194 34.0077 30.1825 30.7764L31.0149 30.5368Z" fill="#6BA638"/>
<path id="Vector_11" d="M72.9606 27.5231C72.0782 29.313 73.5532 31.2567 71.3541 32.3046C69.786 33.0525 68.2584 32.3039 67.4233 30.9611C65.2133 27.408 70.7969 25.4036 72.6488 26.9803L72.9619 27.5224L72.9606 27.5231Z" fill="#6BA638"/>
</g>
<defs>
<clipPath id="clip0_24_287">
<rect width="75.2313" height="117.361" fill="white" transform="translate(123.833 101.637) rotate(150)"/>
</clipPath>
</defs>
</svg>
