<svg width="98" height="59" viewBox="0 0 98 59" fill="none" xmlns="http://www.w3.org/2000/svg">
<g id="Layer_2" clip-path="url(#clip0_24_245)">
<path id="Vector" d="M69.8659 58.8035C71.8686 59.0628 76.7093 59.7967 86.1861 54.9265C92.3596 51.7539 98 45.3234 98 45.3234L50.4875 36.0696L38.7961 48.6405L69.8659 58.8035Z" fill="#9EAF61"/>
<path id="Vector_2" d="M66.8065 57.9429C63.4603 57.9429 61.1851 57.57 61.0828 57.5534L61.4957 55.4924C61.5195 55.4959 64.0149 55.902 67.5276 55.8416C70.7345 55.7871 75.4789 55.3219 79.8603 53.4183C83.6682 51.7645 87.6498 48.9021 89.8405 47.2128C81.1538 45.5412 53.7182 40.2591 53.2172 40.1454L53.7741 38.1128H53.7681C54.4155 38.2513 79.4248 43.0671 92.5595 45.5945L94.7229 46.0112L93.1057 47.3868C92.8499 47.6034 86.7847 52.7317 80.8492 55.3112C76.0774 57.3841 70.963 57.8837 67.5133 57.9381C67.273 57.9417 67.0373 57.944 66.8065 57.944V57.9429Z" fill="#639334"/>
<path id="Vector_3" d="M0 0C0 0 6.86367 7.27452 8.55816 15.901C9.44349 20.4065 10.4359 29.806 12.942 39.9903C15.2386 49.3212 22.126 53.1307 22.126 53.1307L69.9182 58.807C69.9182 58.807 60.038 55.1254 55.3068 41.6666C52.6544 34.1234 50.6041 17.4825 49.1833 12.5922C46.5475 3.52184 40.1812 1.04649 40.1812 1.04649L0 0Z" fill="#BDE377"/>
<path id="Vector_4" d="M55.8541 48.5824C51.0431 40.3526 49.4831 30.8927 47.9754 21.7454C47.4245 18.4071 46.9045 15.2546 46.2369 12.2039C44.6459 4.94595 38.9853 3.0483 38.745 2.97136L38.5641 2.91335L3.74121 1.81714L4.97877 3.63547C5.02755 3.7065 9.8552 10.8425 10.5073 15.2475C11.7794 23.8349 12.9574 31.4278 14.4901 37.3753C16.1334 43.7501 18.148 48.0059 20.8314 50.7666C21.7536 51.716 22.6853 52.5565 23.5528 53.2786L27.3821 53.7131C26.2016 52.9341 24.857 51.465 22.7055 49.2513C17.6066 44.0023 15.6336 32.788 12.9895 14.9409C12.4767 11.4782 9.83854 6.79033 8.27256 4.24632L38.0595 5.1839C38.4165 5.33069 39.3447 5.76278 40.3573 6.64117C42.0816 8.13633 43.2335 10.1595 43.7797 12.6526C44.4365 15.6488 44.9518 18.7752 45.498 22.0852C46.2512 26.6547 47.0306 31.3805 48.2444 36.0411C49.6283 41.3565 51.3954 45.8111 53.6444 49.6585C55.6292 53.0549 58.1032 55.7114 60.2903 57.6433L64.7836 58.1772C62.4227 56.4962 58.6053 53.2893 55.8541 48.5836V48.5824Z" fill="#6BA638"/>
<path id="Vector_5" d="M56.0017 52.0794C53.3576 47.8899 47.0949 39.3831 30.3962 40.3988C17.6149 41.1765 19.2797 47.369 21.6286 50.048C22.5973 51.1525 24.1597 52.4725 26.2016 53.5983L52.195 56.6999C54.0192 56.7283 57.576 54.5737 56.0017 52.0794Z" fill="#6BA638"/>
<path id="Vector_6" d="M33.596 21.6081C33.596 23.2205 31.4779 24.5286 28.8647 24.5286C26.2516 24.5286 24.1335 23.2217 24.1335 21.6081C24.1335 19.9946 26.2516 18.6877 28.8647 18.6877C31.4779 18.6877 33.596 19.9946 33.596 21.6081Z" fill="#6BA638"/>
<path id="Vector_7" d="M68.0381 49.816C67.6335 50.9513 65.2917 51.2756 62.8059 50.5393C60.32 49.803 58.6327 48.2853 59.0373 47.15C59.4419 46.0148 61.7837 45.6904 64.2695 46.4267C66.7553 47.1631 68.4427 48.6807 68.0381 49.816Z" fill="#639334"/>
<path id="Vector_8" d="M42.1125 55.4935L48.3039 56.2287C48.6406 55.6238 48.8715 54.8851 48.9476 53.9795L50.8992 54.1582L50.8063 51.4567L48.9131 51.407C48.5788 47.6129 46.914 45.1506 42.6861 44.9564C37.0076 44.6948 36.4531 48.7269 35.4274 50.7607C34.4016 52.7945 34.078 54.2162 32.4644 54.0848C30.8508 53.9534 29.8857 53.21 29.7703 51.1999C29.5716 47.7052 32.1419 48.1054 32.1419 48.1054L32.061 44.7327C32.061 44.7327 26.1302 44.29 25.7733 49.932L24.0121 49.8775L24.0728 52.128L25.9422 52.3931C26.0315 52.83 26.1517 53.236 26.298 53.616L37.6883 54.9691C38.1417 54.1819 38.4118 53.3615 38.6355 52.7128C39.4566 50.3227 40.2967 48.7482 41.9662 48.7967C44.164 48.8607 45.1719 50.1617 44.9553 52.5316C44.7578 54.6909 43.2216 55.3219 42.1137 55.4935H42.1125Z" fill="#BDE377"/>
</g>
<defs>
<clipPath id="clip0_24_245">
<rect width="98" height="59" fill="white"/>
</clipPath>
</defs>
</svg>
