<svg width="340" height="200" viewBox="0 0 340 200" fill="none" xmlns="http://www.w3.org/2000/svg">
<path fill-rule="evenodd" clip-rule="evenodd" d="M338.05 0H0V200H338.5C338.186 199.582 338 199.063 338 198.5C338 197.291 338.859 196.282 340 196.05V194.95C338.859 194.718 338 193.709 338 192.5C338 191.291 338.859 190.282 340 190.05V188.95C338.859 188.718 338 187.709 338 186.5C338 185.291 338.859 184.282 340 184.05V182.95C338.859 182.718 338 181.709 338 180.5C338 179.291 338.859 178.282 340 178.05V176.95C338.859 176.718 338 175.709 338 174.5C338 173.291 338.859 172.282 340 172.05V170.95C338.859 170.718 338 169.709 338 168.5C338 167.291 338.859 166.282 340 166.05V164.95C338.859 164.718 338 163.709 338 162.5C338 161.291 338.859 160.282 340 160.05V158.95C338.859 158.718 338 157.709 338 156.5C338 155.291 338.859 154.282 340 154.05V152.95C338.859 152.718 338 151.709 338 150.5C338 149.291 338.859 148.282 340 148.05V146.95C338.859 146.718 338 145.709 338 144.5C338 143.291 338.859 142.282 340 142.05V140.95C338.859 140.718 338 139.709 338 138.5C338 137.291 338.859 136.282 340 136.05V134.95C338.859 134.718 338 133.709 338 132.5C338 131.291 338.859 130.282 340 130.05V128.95C338.859 128.718 338 127.709 338 126.5C338 125.291 338.859 124.282 340 124.05V122.95C338.859 122.718 338 121.709 338 120.5C338 119.291 338.859 118.282 340 118.05V116.95C338.859 116.718 338 115.709 338 114.5C338 113.291 338.859 112.282 340 112.05V110.95C338.859 110.718 338 109.709 338 108.5C338 107.291 338.859 106.282 340 106.05V104.95C338.859 104.718 338 103.709 338 102.5C338 101.291 338.859 100.282 340 100.05V98.95C338.859 98.7184 338 97.7095 338 96.5C338 95.2905 338.859 94.2816 340 94.05V92.95C338.859 92.7184 338 91.7095 338 90.5C338 89.2905 338.859 88.2816 340 88.05V86.95C338.859 86.7184 338 85.7095 338 84.5C338 83.2905 338.859 82.2816 340 82.05V80.95C338.859 80.7184 338 79.7095 338 78.5C338 77.2905 338.859 76.2816 340 76.05V74.95C338.859 74.7184 338 73.7095 338 72.5C338 71.2905 338.859 70.2816 340 70.05V68.95C338.859 68.7184 338 67.7095 338 66.5C338 65.2905 338.859 64.2816 340 64.05V62.95C338.859 62.7184 338 61.7095 338 60.5C338 59.2905 338.859 58.2816 340 58.05V56.95C338.859 56.7184 338 55.7095 338 54.5C338 53.2905 338.859 52.2816 340 52.05V50.95C338.859 50.7184 338 49.7095 338 48.5C338 47.2905 338.859 46.2816 340 46.05V44.95C338.859 44.7184 338 43.7095 338 42.5C338 41.2905 338.859 40.2816 340 40.05V38.95C338.859 38.7184 338 37.7095 338 36.5C338 35.2905 338.859 34.2816 340 34.05V32.95C338.859 32.7184 338 31.7095 338 30.5C338 29.2905 338.859 28.2816 340 28.05V26.95C338.859 26.7184 338 25.7095 338 24.5C338 23.2905 338.859 22.2816 340 22.05V20.95C338.859 20.7184 338 19.7095 338 18.5C338 17.2905 338.859 16.2816 340 16.05V14.95C338.859 14.7184 338 13.7095 338 12.5C338 11.2905 338.859 10.2816 340 10.05V8.94999C338.859 8.71835 338 7.70948 338 6.5C338 5.29052 338.859 4.28164 340 4.05001V2.94999C338.859 2.71835 338 1.70948 338 0.5C338 0.328767 338.017 0.161555 338.05 0Z" fill="url(#paint0_linear_153_54)"/>
<defs>
<linearGradient id="paint0_linear_153_54" x1="0" y1="100" x2="340" y2="100" gradientUnits="userSpaceOnUse">
<stop stop-color="#FFA400"/>
<stop offset="1" stop-color="#CE3B3B"/>
</linearGradient>
</defs>
</svg>
