<svg id="svg4408" height="512" width="512" xmlns="http://www.w3.org/2000/svg" xmlns:xlink="http://www.w3.org/1999/xlink" xmlns:cc="http://creativecommons.org/ns#" xmlns:dc="http://purl.org/dc/elements/1.1/" xmlns:inkscape="http://www.inkscape.org/namespaces/inkscape" xmlns:rdf="http://www.w3.org/1999/02/22-rdf-syntax-ns#" xmlns:sodipodi="http://sodipodi.sourceforge.net/DTD/sodipodi-0.dtd" xmlns:svg="http://www.w3.org/2000/svg"><clipPath id="clipPath3146"><path id="path3148" d="m-479.99183 20.215956a156.8 156.8 0 1 1 -.008 1.602218" transform="matrix(1.499 0 0 1.499 740.133 -223.272)"/></clipPath><clipPath id="clipPath4905"><rect id="rect4907" height="480" ry="48" width="480" x="-556.8" y="-513.6"/></clipPath><clipPath id="clipPath3268"><path id="path3270" d="m-360 118a208 208 0 1 1 -416 0 208 208 0 1 1 416 0z" transform="matrix(1.154 0 0 1.154 338.585 -409.754)"/></clipPath><g id="layer1" transform="translate(0 448)"><g id="g4987" clip-path="url(#clipPath3268)" transform="translate(572.8 81.6)"><path id="rect3220" d="m33.6-556.8h160v480h-160z" fill="#27ae60" transform="rotate(-90)"/><path id="rect3990" d="m193.6-556.8h160v480h-160z" fill="#fff" transform="rotate(-90)"/><path id="rect3992" d="m353.6-556.8h160v480h-160z" fill="#f39c12" transform="rotate(-90)"/><g id="g4537" transform="matrix(.933 0 0 .933 -555.733 -94.4)"><circle id="circle4539" fill="#008" r="20" transform="matrix(3.75 0 0 3.75 256 -192)"/><circle id="circle4541" fill="#fff" r="17.5" transform="matrix(3.75 0 0 3.75 256 -192)"/><g fill="#008"><circle id="circle4543" r="3.5" transform="matrix(3.75 0 0 3.75 256 -192)"/><g id="g4545" transform="matrix(3.75 0 0 3.75 256 -192)"><g id="g4547"><g id="g4549"><g id="g4551"><circle id="circle4553" r=".875" transform="matrix(.991 .131 -.131 .991 17.35 2.284)"/><path id="path4555" d="m0 17.5.6-10.5s-.6-5-.6-5-.6 5-.6 5z"/></g><g id="use4557" transform="matrix(.966 .259 -.259 .966 0 0)"><circle id="circle4851" r=".875" transform="matrix(.991 .131 -.131 .991 17.35 2.284)"/><path id="path4853" d="m0 17.5.6-10.5s-.6-5-.6-5-.6 5-.6 5z"/></g></g><g id="use4559" transform="matrix(.866 .5 -.5 .866 0 0)"><g id="g4735"><circle id="circle4737" r=".875" transform="matrix(.991 .131 -.131 .991 17.35 2.284)"/><path id="path4739" d="m0 17.5.6-10.5s-.6-5-.6-5-.6 5-.6 5z"/></g><g id="use4741" transform="matrix(.966 .259 -.259 .966 0 0)"><circle id="circle4923" r=".875" transform="matrix(.991 .131 -.131 .991 17.35 2.284)"/><path id="path4925" d="m0 17.5.6-10.5s-.6-5-.6-5-.6 5-.6 5z"/></g></g></g><g id="use4561" transform="matrix(.5 .866 -.866 .5 0 0)"><g id="g4655"><g id="g4657"><circle id="circle4659" r=".875" transform="matrix(.991 .131 -.131 .991 17.35 2.284)"/><path id="path4661" d="m0 17.5.6-10.5s-.6-5-.6-5-.6 5-.6 5z"/></g><g id="use4663" transform="matrix(.966 .259 -.259 .966 0 0)"><circle id="circle4887" r=".875" transform="matrix(.991 .131 -.131 .991 17.35 2.284)"/><path id="path4889" d="m0 17.5.6-10.5s-.6-5-.6-5-.6 5-.6 5z"/></g></g><g id="use4665" transform="matrix(.866 .5 -.5 .866 0 0)"><g id="g4795"><circle id="circle4797" r=".875" transform="matrix(.991 .131 -.131 .991 17.35 2.284)"/><path id="path4799" d="m0 17.5.6-10.5s-.6-5-.6-5-.6 5-.6 5z"/></g><g id="use4801" transform="matrix(.966 .259 -.259 .966 0 0)"><circle id="circle4959" r=".875" transform="matrix(.991 .131 -.131 .991 17.35 2.284)"/><path id="path4961" d="m0 17.5.6-10.5s-.6-5-.6-5-.6 5-.6 5z"/></g></g></g></g><g id="use4563" transform="matrix(-1.875 3.248 -3.248 -1.875 256 -192)"><g id="g4605"><g id="g4607"><g id="g4609"><circle id="circle4611" r=".875" transform="matrix(.991 .131 -.131 .991 17.35 2.284)"/><path id="path4613" d="m0 17.5.6-10.5s-.6-5-.6-5-.6 5-.6 5z"/></g><g id="use4615" transform="matrix(.966 .259 -.259 .966 0 0)"><circle id="circle4869" r=".875" transform="matrix(.991 .131 -.131 .991 17.35 2.284)"/><path id="path4871" d="m0 17.5.6-10.5s-.6-5-.6-5-.6 5-.6 5z"/></g></g><g id="use4617" transform="matrix(.866 .5 -.5 .866 0 0)"><g id="g4765"><circle id="circle4767" r=".875" transform="matrix(.991 .131 -.131 .991 17.35 2.284)"/><path id="path4769" d="m0 17.5.6-10.5s-.6-5-.6-5-.6 5-.6 5z"/></g><g id="use4771" transform="matrix(.966 .259 -.259 .966 0 0)"><circle id="circle4941" r=".875" transform="matrix(.991 .131 -.131 .991 17.35 2.284)"/><path id="path4943" d="m0 17.5.6-10.5s-.6-5-.6-5-.6 5-.6 5z"/></g></g></g><g id="use4619" transform="matrix(.5 .866 -.866 .5 0 0)"><g id="g4697"><g id="g4699"><circle id="circle4701" r=".875" transform="matrix(.991 .131 -.131 .991 17.35 2.284)"/><path id="path4703" d="m0 17.5.6-10.5s-.6-5-.6-5-.6 5-.6 5z"/></g><g id="use4705" transform="matrix(.966 .259 -.259 .966 0 0)"><circle id="circle4905" r=".875" transform="matrix(.991 .131 -.131 .991 17.35 2.284)"/><path id="path4907" d="m0 17.5.6-10.5s-.6-5-.6-5-.6 5-.6 5z"/></g></g><g id="use4707" transform="matrix(.866 .5 -.5 .866 0 0)"><g id="g4825"><circle id="circle4827" r=".875" transform="matrix(.991 .131 -.131 .991 17.35 2.284)"/><path id="path4829" d="m0 17.5.6-10.5s-.6-5-.6-5-.6 5-.6 5z"/></g><g id="use4831" transform="matrix(.966 .259 -.259 .966 0 0)"><circle id="circle4977" r=".875" transform="matrix(.991 .131 -.131 .991 17.35 2.284)"/><path id="path4979" d="m0 17.5.6-10.5s-.6-5-.6-5-.6 5-.6 5z"/></g></g></g></g><g id="use4565" transform="matrix(-1.875 -3.248 3.248 -1.875 256 -192)"><g id="g4623"><g id="g4625"><g id="g4627"><circle id="circle4629" r=".875" transform="matrix(.991 .131 -.131 .991 17.35 2.284)"/><path id="path4631" d="m0 17.5.6-10.5s-.6-5-.6-5-.6 5-.6 5z"/></g><g id="use4633" transform="matrix(.966 .259 -.259 .966 0 0)"><circle id="circle4875" r=".875" transform="matrix(.991 .131 -.131 .991 17.35 2.284)"/><path id="path4877" d="m0 17.5.6-10.5s-.6-5-.6-5-.6 5-.6 5z"/></g></g><g id="use4635" transform="matrix(.866 .5 -.5 .866 0 0)"><g id="g4775"><circle id="circle4777" r=".875" transform="matrix(.991 .131 -.131 .991 17.35 2.284)"/><path id="path4779" d="m0 17.5.6-10.5s-.6-5-.6-5-.6 5-.6 5z"/></g><g id="use4781" transform="matrix(.966 .259 -.259 .966 0 0)"><circle id="circle4947" r=".875" transform="matrix(.991 .131 -.131 .991 17.35 2.284)"/><path id="path4949" d="m0 17.5.6-10.5s-.6-5-.6-5-.6 5-.6 5z"/></g></g></g><g id="use4637" transform="matrix(.5 .866 -.866 .5 0 0)"><g id="g4711"><g id="g4713"><circle id="circle4715" r=".875" transform="matrix(.991 .131 -.131 .991 17.35 2.284)"/><path id="path4717" d="m0 17.5.6-10.5s-.6-5-.6-5-.6 5-.6 5z"/></g><g id="use4719" transform="matrix(.966 .259 -.259 .966 0 0)"><circle id="circle4911" r=".875" transform="matrix(.991 .131 -.131 .991 17.35 2.284)"/><path id="path4913" d="m0 17.5.6-10.5s-.6-5-.6-5-.6 5-.6 5z"/></g></g><g id="use4721" transform="matrix(.866 .5 -.5 .866 0 0)"><g id="g4835"><circle id="circle4837" r=".875" transform="matrix(.991 .131 -.131 .991 17.35 2.284)"/><path id="path4839" d="m0 17.5.6-10.5s-.6-5-.6-5-.6 5-.6 5z"/></g><g id="use4841" transform="matrix(.966 .259 -.259 .966 0 0)"><circle id="circle4983" r=".875" transform="matrix(.991 .131 -.131 .991 17.35 2.284)"/><path id="path4985" d="m0 17.5.6-10.5s-.6-5-.6-5-.6 5-.6 5z"/></g></g></g></g></g></g></g></g></svg>